<?xml version="1.0" encoding="UTF-8" standalone="no"?>
<!DOCTYPE svg PUBLIC "-//W3C//DTD SVG 1.1//EN" "http://www.w3.org/Graphics/SVG/1.1/DTD/svg11.dtd">
<svg width="100%" height="100%" viewBox="0 0 1600 1600" version="1.1" xmlns="http://www.w3.org/2000/svg" xmlns:xlink="http://www.w3.org/1999/xlink" xml:space="preserve" xmlns:serif="http://www.serif.com/" style="fill-rule:evenodd;clip-rule:evenodd;stroke-linejoin:round;stroke-miterlimit:2;">
    <g>
        <path d="M290.938,1554.34L910.42,1564.68L1342.37,1550.81L1315.15,1489.51L1233.63,1422.78L1210.48,1409.09L1247.16,1421.24L1250.45,1326.92L1226.84,1293.26L1148.75,1257.86L982.153,1213.56L1012.94,1181.38L1103.73,1096.8L1161.25,1021.71L1236.28,989.329L1301.92,924.188L1328.92,840.979L1312.3,807.389L1252.85,787.159L1315.74,643.928L1038.61,494.801L593.044,389.515L358.677,631.382L380.898,800L342.252,793.259L315.381,786.969L280.996,816.883L274.204,863.068L292.459,918.874L331.189,979.741L379.94,1017.97L421.612,1027.15L501.684,1114.79L635.501,1211.11L625.057,1222.72L480.643,1246.42L434.25,1264.34L399.454,1312.83L397.713,1358.86L413.487,1394.65L340.657,1465.15L290.938,1554.34Z" style="fill:white;"/>
    </g>
    <g transform="matrix(1,0,0,1,17.3231,-4.54747e-13)">
        <g id="图层1" transform="matrix(1,0,0,1,-223.637,-110.765)">
            <path d="M1289.11,741.282L1089.65,763.732C1089.65,763.732 1064.71,767.074 1082.19,783.842C1099.66,800.61 1090.51,812.049 1103.68,815.145C1116.85,818.241 1346.56,809.904 1359.44,805.191C1372.32,800.478 1371.07,788.236 1353.57,778.213C1336.08,768.19 1307.28,753.371 1304.28,751.543C1301.28,749.715 1298.28,741.638 1289.11,741.282ZM710.908,741.282L649.339,782.293C649.339,782.293 633.458,797.544 653.041,801.807C672.625,806.07 891.626,814.628 891.626,814.628C891.626,814.628 906.916,819.284 910.345,800.648C913.774,782.011 946.174,774.796 921.193,762.14L710.908,741.282Z"/>
            <path d="M1205.93,901.242C1221.35,901.242 1233.86,913.932 1233.86,929.564C1233.86,945.195 1221.35,957.886 1205.93,957.886C1190.52,957.886 1178.01,945.195 1178.01,929.564C1178.01,913.932 1190.52,901.242 1205.93,901.242ZM821.318,892.433C837.975,892.433 851.498,905.696 851.498,922.033C851.498,938.369 837.975,951.632 821.318,951.632C804.662,951.632 791.139,938.369 791.139,922.033C791.139,905.696 804.662,892.433 821.318,892.433Z"/>
            <path d="M1217.13,831.952C1222.03,832.039 1226.94,832.205 1231.8,832.79C1243.03,834.143 1255.89,837.249 1266.23,841.578C1305.9,858.18 1334.69,894.537 1340.76,937.338C1341.48,942.404 1341.72,947.557 1341.51,952.67C1339.13,1009.63 1274.22,1037.91 1225.36,1041.76C1200.56,1043.71 1174.36,1038.46 1151.16,1029.85C1133.21,1023.19 1116.44,1013.25 1103.69,998.722C1091.66,985.013 1081.62,967.223 1078.86,948.977C1075.84,928.936 1082.76,906.104 1095.06,890.128C1123.66,852.97 1157.34,830.892 1217.13,831.952ZM804.179,825.65C799.283,825.737 794.374,825.902 789.512,826.487C778.278,827.84 765.424,830.946 755.08,835.275C715.411,851.877 686.623,888.234 680.552,931.035C679.833,936.101 679.586,941.255 679.8,946.367C682.179,1003.32 747.09,1031.61 795.954,1035.46C820.751,1037.41 846.952,1032.16 870.149,1023.55C888.101,1016.89 904.869,1006.95 917.617,992.419C929.647,978.71 939.692,960.92 942.446,942.675C945.471,922.633 938.553,899.801 926.254,883.825C897.649,846.667 863.97,824.589 804.179,825.65ZM1215.71,845.471C1220.1,845.581 1224.5,845.691 1228.86,846.203C1238.92,847.382 1250.45,850.09 1259.74,853.877C1294.82,868.173 1321.05,899.638 1326.57,937.495C1334.97,995.189 1270.97,1025.01 1223.08,1028.68C1200.86,1030.38 1177.42,1025.82 1156.55,1018.28C1145.99,1014.47 1135.85,1009.56 1126.85,1002.75C1117.18,995.431 1109.21,986.764 1103.02,976.3C1098.14,968.064 1093.26,957.534 1091.72,947.659C1088.89,929.378 1095.86,911.08 1106.24,896.271C1129.94,862.475 1166,844.227 1215.71,845.471ZM805.601,839.169C801.212,839.278 796.81,839.389 792.449,839.9C782.394,841.079 770.863,843.788 761.573,847.574C726.495,861.87 700.258,893.335 694.744,931.192C686.339,988.886 750.335,1018.71 798.225,1022.37C820.453,1024.08 843.893,1019.52 864.756,1011.98C875.321,1008.16 885.463,1003.25 894.463,996.443C904.13,989.128 912.095,980.461 918.293,969.997C923.17,961.761 928.055,951.232 929.585,941.356C932.419,923.075 925.451,904.777 915.066,889.968C891.365,856.172 855.313,837.924 805.601,839.169Z"/>
            <path d="M926.655,903.6L924.47,898.397C926.982,897.783 928.56,897.41 928.56,897.41C928.56,897.41 1022.6,884.043 1095.02,901.242C1095.67,901.395 1096.3,901.546 1096.92,901.695L1094.54,906.256C1095.12,906.389 1095.71,906.527 1096.3,906.666C1096.94,906.819 1097.58,906.97 1098.2,907.119L1094.59,914.033C1093.79,913.93 1093.33,913.87 1093.33,913.87C1093.33,913.87 1021.61,898.855 932.106,911.14C931.041,911.287 930.001,911.428 928.998,911.563L925.747,903.821C926.065,903.744 926.368,903.67 926.655,903.6Z"/>
            <path d="M939.557,1186.73L939.539,1186.73C938.769,1186.77 911.797,1184.05 900.763,1166.5L900.751,1166.47C900.508,1166.04 896.668,1159.03 900.763,1155.04C904.979,1150.93 910.593,1153.7 913.384,1156.92L913.391,1156.92L913.407,1156.95C913.745,1157.6 919.49,1168.01 940.91,1170.64L1073.87,1177.77L1073.9,1177.77C1075.05,1177.8 1083.58,1178.63 1083.08,1186.11C1082.64,1192.57 1073.39,1193.4 1073.39,1193.4L939.557,1186.73Z"/>
            <path d="M996.267,1037.36C1004.55,1037.57 1008.89,1037.74 1008.89,1037.74C1008.89,1037.74 1017.38,1037.58 1017.04,1045.34C1016.7,1053.26 1008.92,1052.11 1008.92,1052.11L986.603,1051.92C986.603,1051.92 970.857,1051.89 974.189,1033.78C977.52,1015.67 989.571,973.464 989.571,973.464L989.576,973.432C989.682,972.774 991.518,962.261 1000,963.701C1004.15,964.405 1006.97,967.059 1006.29,975.198L991.367,1031.57C991.367,1031.57 988.64,1037.77 996.267,1037.36Z"/>
        </g>
        <g id="图层4" transform="matrix(1,0,0,1,-223.637,-110.765)">
            <path d="M572.166,897.465C568.72,852.285 566.286,806.468 564.446,763.591C562.206,711.41 561.403,661.692 564.544,609.514C566.02,585.004 568.545,555.19 579.38,531.952C580.542,529.461 582.198,527.174 584.099,525.188C594.073,514.773 606.158,522.296 613.954,531.21C617.196,511.529 620.689,491.882 624.725,472.348C627.356,459.61 630.54,446.987 633.947,434.435C634.836,431.16 636.282,428.061 637.597,424.933C637.824,424.391 639.231,421.95 640.401,422.586C641.912,423.408 642.129,426.735 642.208,428.036C642.49,432.66 642.734,437.288 642.866,441.92C643.276,456.353 643.099,470.806 643.835,485.226C645.23,512.546 646.841,539.865 649.259,567.114L590.294,730.224C592.902,831.017 595.424,873.573 603.839,974.041C606.738,1008.64 606.854,1030.41 612.921,1064.55C614.771,1074.95 621.764,1098.83 626.495,1109.49C636.645,1132.35 658.448,1157.27 675.157,1175.36C707.378,1210.24 728.417,1228.18 764.207,1257.67C788.423,1277.63 810.981,1294.68 835.677,1308.9C839.856,1307.81 846.67,1308.08 857.55,1312.91C880.979,1323.29 911.601,1334.94 928.054,1337.46C944.508,1339.99 964.852,1334.43 964.213,1345.06C963.574,1355.68 955.567,1354.92 952.963,1355.8C951.186,1356.4 936.621,1356.75 924.215,1355.77C924.358,1371.95 924.612,1417.11 923.037,1421.43C921.277,1426.26 910.119,1443.67 903.465,1451.71C907.302,1462.56 924.509,1488.14 999,1535.14C1020.37,1548.62 1034.37,1561.62 1043.27,1573.34C1052.69,1539.83 1142.02,1487.36 1169.54,1471.87C1161.22,1467.12 1148.27,1458.36 1129.62,1442.35C1098.88,1415.94 1104.27,1367.76 1107.21,1351.24C1093.25,1354.44 1086.12,1350.9 1086.61,1340.6C1087.16,1329.11 1111.06,1333.02 1119.96,1330.17C1124.02,1328.87 1140.11,1325.11 1152.5,1320.73C1170.47,1314.38 1183.5,1307.98 1186.05,1306.7C1278.46,1232.94 1331.18,1174.29 1359.21,1105.56C1387.81,1035.46 1407.45,935.759 1410.16,901.142C1412.86,866.526 1415.36,771.257 1415.36,771.257L1441.31,728.769C1441.31,728.769 1433.58,852.134 1433.56,884.129C1433.56,884.679 1433.56,885.241 1433.55,885.818C1441.95,886.101 1456.17,887.466 1480.13,891.479C1533.62,900.44 1537.62,929.384 1541.01,948.274C1544.39,967.192 1551.29,1078.38 1369.63,1146.08C1327.73,1225.85 1242.27,1291.87 1204.56,1318.41C1204.25,1318.7 1203.93,1319 1203.6,1319.3C1245.93,1324.43 1370.39,1343.02 1435.78,1390.03C1478.21,1420.54 1467.58,1515.32 1462.15,1531.22C1503.38,1560.57 1527.29,1590.93 1555.44,1643.84C1555.5,1643.77 1562.81,1656.57 1548.68,1661.57C1537.33,1665.59 1533.01,1654.24 1533.01,1654.24C1531.59,1652.07 1494.84,1559.62 1402.21,1528.66C1390.14,1524.62 1390.21,1524.41 1390.21,1524.41C1340.28,1558.11 1222.37,1621.16 1175.54,1648.11C1120.68,1679.7 1116.73,1675.45 1116.73,1675.45L1116.17,1675.42C1110.63,1675.07 1065.41,1672.34 1036.24,1672.63C1005.12,1672.95 1008.67,1655.59 1008.67,1655.59C1008.48,1647.63 860.901,1609.7 810.257,1588.6C763.953,1569.3 676.357,1521.27 651.475,1502.94C543.727,1572.12 512.802,1650.66 511.901,1653.1L511.879,1653.15C511.879,1653.15 509.04,1667.58 497.252,1665.11C482.902,1662.09 488.183,1648.01 488.259,1648.06C509.846,1583.73 566.449,1533.44 606.501,1504.39C593.437,1488.17 558.824,1420.19 634.38,1371.49C716.892,1318.31 818.405,1323.64 818.405,1323.64C818.405,1323.64 711.378,1259.42 623.401,1147.15C614.409,1152.76 595.871,1152.52 558.518,1119.84C493.928,1063.32 501.656,1055.14 490.923,1037.76C481.339,1022.23 447.754,969.805 484.847,915.625C514.518,872.286 556.539,889.03 572.166,897.465ZM1413.8,1507.53C1421.34,1510.1 1431.2,1513.71 1442.52,1518.42C1444.89,1492.9 1448.12,1430.93 1426.2,1412.56C1375.27,1369.87 1246.79,1342.06 1167.88,1338.71C1154.15,1343.91 1140.37,1347.95 1134.33,1349.64C1132.31,1355.75 1126.27,1378.62 1135.92,1410.87C1156.19,1447.37 1199.63,1461.42 1202.32,1462.26L1202.45,1462.3C1212.88,1472.61 1188.57,1487.27 1183.37,1488.94C1178.18,1490.61 1125.74,1521.64 1087.86,1554.96C1054.19,1584.56 1056.08,1637.19 1056.92,1648.55L1120.41,1652.14C1138.09,1643.63 1354.52,1523.03 1374.97,1507.1C1375.01,1507.04 1375.08,1506.98 1375.18,1506.9C1377.32,1504.93 1395,1488.83 1403.81,1489.23C1409.79,1489.5 1414.38,1493.46 1415.42,1498.65C1416.21,1499.39 1416.34,1500.53 1415.58,1502.18C1415.4,1503.92 1414.83,1505.73 1413.8,1507.53ZM887.789,1346.92L901.106,1351.39C903.327,1371.4 899.82,1422.39 897.7,1426.25C895.362,1430.5 876.519,1450.3 876.519,1450.3C876.519,1450.3 867.346,1469.23 936.453,1520.93C987.288,1558.97 1020.99,1584.92 1036.26,1603.62C1033.77,1615.43 1031.34,1628.5 1030.33,1638.49C1002.11,1620.1 935.414,1602.96 861.549,1580.33C789.754,1558.33 674.467,1488.37 674.467,1488.37L674.5,1488.25C674.809,1487.07 677.026,1477.48 668.95,1473.83C660.605,1470.05 649.496,1476.6 648.811,1477.01L648.778,1477.03C646.042,1478.58 636.656,1483.88 623.601,1492.53C611.786,1471.71 593.107,1423.91 645.421,1390.6C709.712,1349.67 820.133,1336.57 887.789,1346.92ZM1346.98,1417.02C1347.36,1416.31 1353.3,1404.76 1343.79,1399.29C1336.19,1394.92 1329.92,1401.96 1328.18,1407.06L1174.99,1396.79C1174.42,1396.77 1162.27,1395.67 1160.95,1405.41C1158.96,1419.99 1174.52,1419.67 1174.52,1419.67L1311.24,1427.63C1282.42,1469.45 1181.96,1534.37 1181.96,1534.37C1181.34,1534.54 1172.63,1540.34 1177.31,1549.29C1183.39,1560.91 1201.37,1549.07 1201.37,1549.07C1316.75,1480.9 1346.96,1417.06 1346.96,1417.06L1346.98,1417.02ZM724.747,1426.6C724.364,1425.88 718.368,1414.37 727.857,1408.85C735.433,1404.44 741.74,1411.45 743.503,1416.54L826.646,1408.86L826.674,1408.85C827.242,1408.83 836.369,1408.61 837.588,1416.54C839.342,1427.95 826.475,1431.53 826.475,1431.53L760.537,1437.04C810.58,1492.88 887.549,1519.95 887.549,1519.95L887.579,1519.96C888.202,1520.12 898.104,1522.91 893.467,1531.88C887.444,1543.53 866.995,1534.07 866.995,1534.07L866.714,1533.97C770.987,1498.89 724.766,1426.63 724.766,1426.63L724.747,1426.6ZM581.555,999.949C581.286,996.135 581.039,992.267 580.814,988.357C578.303,967.068 576.115,945.01 574.199,922.623C557.557,910.08 527.054,894.803 502.268,925.48C467.219,968.858 499.177,1014.39 507.621,1027.34C517.079,1041.84 511.634,1054.69 568.549,1101.83C588.334,1118.21 601.119,1125.57 609.379,1128.19C596.474,1104.48 588.317,1068.53 583.755,1025.16C577.15,1023.09 565.826,1019.86 562.751,1020.98C558.332,1022.58 544.779,1018.47 548.766,1004.48C551.615,994.484 567.543,996.268 581.555,999.949ZM1412.27,1033.68C1405.71,1055.86 1397.04,1080.72 1385.25,1109.3C1383.82,1112.76 1382.85,1116.41 1381.5,1119.95C1519.77,1055.17 1520.45,972.738 1518.74,957.975C1517.02,943.151 1512.68,920.803 1468.83,913.839C1449.09,910.703 1442.31,912.625 1435.61,918.42C1431.66,945.032 1427.99,973.185 1419.23,1008.23C1433.44,1004.93 1465.86,999.181 1465.88,1014.65C1465.89,1033.58 1451.83,1029.12 1447.68,1028.72C1444.73,1028.43 1423.99,1031.75 1412.27,1033.68ZM603.148,603.738C598.097,641.166 593.775,678.698 590.136,716.289C588.209,736.202 587.694,756.227 586.456,776.194C585.837,786.175 585.424,796.171 584.566,806.133C583.708,816.086 582.504,826.007 581.307,835.925C581.192,836.879 581.285,838.021 580.635,838.728C580.273,839.121 580.17,837.742 580.125,837.21C579.788,833.214 579.59,829.205 579.493,825.196C579.235,814.524 579.354,803.845 579.06,793.174C578.49,772.504 577.34,751.852 576.9,731.179C576.357,705.648 575.158,677.389 582.605,652.341C587.941,634.396 594.863,620.412 603.148,603.738Z"/>
        </g>
        <g id="图层2" transform="matrix(1,0,0,1,-223.637,-110.765)">
            <path d="M1420.78,850.959L1420.63,850.832C1385.08,819.879 1360.52,772.268 1348.78,745.889C1317.17,736.54 1279.21,687.963 1279.21,687.963L1279.25,688.151C1280.14,691.978 1294.06,753.366 1273.94,756.5L1273.82,756.519C1264.73,761.638 1251.68,758.466 1237.04,750.622C1233.62,758.365 1215.64,777.686 1127.85,690.664C1124.22,743.491 1075.97,680.818 1075.97,680.818L1075.9,681.525C1064.02,801.405 985.528,677.729 985.528,677.729L985.404,678.984C964,891.548 794.871,585.914 798.128,524.817L798.013,524.537C798.013,524.537 750.285,622.767 743.374,661.95C736.463,701.132 739.972,724.136 726.706,720.196C716.294,717.104 712.072,680.717 767.849,565.184L767.376,565.969C683.797,704.848 711.891,735.726 697.996,743.802C684.102,751.878 680.149,737.203 676.711,716.109C675.207,706.878 670.159,699.382 664.956,693.87C665.887,713.014 669.087,723.22 672.987,756.795C679.948,816.732 629.157,745.312 629.157,745.312L629.183,745.732C633.414,817.009 588.876,750.89 588.876,750.89L588.239,904.025L587.981,903.759C583.145,898.774 508.404,820.427 472.3,746.606L471.877,745.737C471.547,745.595 471.09,745.39 470.769,745.238C433.016,727.334 459.545,645.926 467.014,625.23C430.619,591.041 526.775,459.505 526.775,459.505L525.99,459.525C392.952,462.603 611.135,309.123 681.493,266.529C706.005,251.69 728.314,246.867 746.983,246.889L747.611,246.891C782.29,247.133 804.269,264.022 804.269,264.022C804.269,264.022 956.071,100.769 1086.01,158.091C1185.11,201.811 1487.66,347.959 1381.74,368.354L1381.11,368.472C1381.11,368.472 1441.14,391.238 1485.37,445.11L1485.38,445.114C1495.89,457.923 1505.52,472.488 1513.23,488.919C1533.64,524.286 1554.51,569.862 1534.05,580.656C1527.95,583.991 1519.43,583.229 1514.81,582.454C1551.88,645.814 1554.12,742.39 1550.9,766.909C1548.47,785.363 1532.98,778.061 1523.95,772.053C1458.61,883.821 1466.78,899.247 1466.78,899.247L1416.44,900.388L1420.78,850.959ZM1426.6,784.658L1421.87,838.553C1405.9,825.015 1384.87,798.538 1359.99,747.398C1362.51,747.266 1364.95,746.765 1367.27,745.84C1376.42,759.613 1400.89,792.967 1420.15,787.321C1422.38,786.667 1424.53,785.762 1426.6,784.658ZM1223.1,742.128L1223.1,742.128C1197.42,751.261 1146.98,698.596 1127.89,677.242C1127.55,670.069 1126.68,661.565 1125.17,651.544L1124.97,650.173C1124.97,650.173 1177.77,711.557 1223.1,742.128ZM472.47,629.086C475.523,630.694 477.919,631.269 477.919,631.269C477.919,631.269 453.998,691.176 463.982,729.511C456.61,717.954 452.344,689.95 472.47,629.086ZM798.013,524.537C798.1,524.74 798.221,524.884 798.41,524.703L798.412,524.701L798.013,524.537ZM1419.05,397.101C1436.02,411.286 1453.88,428.333 1469.24,447.537C1481.72,460.995 1492.63,475.402 1500.42,490.4C1486.49,458.782 1462.02,423.164 1419.05,397.101Z"/>
        </g>
    </g>
</svg>
