<?xml version="1.0" encoding="UTF-8" standalone="no"?>
<!DOCTYPE svg PUBLIC "-//W3C//DTD SVG 1.1//EN" "http://www.w3.org/Graphics/SVG/1.1/DTD/svg11.dtd">
<svg width="100%" height="100%" viewBox="0 0 1013 344" version="1.1" xmlns="http://www.w3.org/2000/svg" xmlns:xlink="http://www.w3.org/1999/xlink" xml:space="preserve" xmlns:serif="http://www.serif.com/" style="fill-rule:evenodd;clip-rule:evenodd;stroke-linejoin:round;stroke-miterlimit:2;">
    <g transform="matrix(2.7955,0,0,1.68449,-34.7579,-11.3725)">
        <path d="M374.796,19.981C374.796,12.679 371.224,6.751 366.825,6.751L20.405,6.751C16.006,6.751 12.434,12.679 12.434,19.981L12.434,197.738C12.434,205.039 16.006,210.967 20.405,210.967L366.825,210.967C371.224,210.967 374.796,205.039 374.796,197.738L374.796,19.981Z" style="fill:white;"/>
    </g>
    <g transform="matrix(0.601777,0,0,0.601777,-73.3063,-1287.53)">
        <g>
            <g transform="matrix(0.29459,0,0,0.29459,172.593,2189.69)">
                <path d="M290.938,1554.34L910.42,1564.68L1342.37,1550.81L1315.15,1489.51L1233.63,1422.78L1210.48,1409.09L1247.16,1421.24L1250.45,1326.92L1226.84,1293.26L1148.75,1257.86L982.153,1213.56L1012.94,1181.38L1103.73,1096.8L1161.25,1021.71L1236.28,989.329L1301.92,924.188L1328.92,840.979L1312.3,807.389L1252.85,787.159L1315.74,643.928L1038.61,494.801L593.044,389.515L358.677,631.382L380.898,800L342.252,793.259L315.381,786.969L280.996,816.883L274.204,863.068L292.459,918.874L331.189,979.741L379.94,1017.97L421.612,1027.15L501.684,1114.79L635.501,1211.11L625.057,1222.72L480.643,1246.42L434.25,1264.34L399.454,1312.83L397.713,1358.86L413.487,1394.65L340.657,1465.15L290.938,1554.34Z" style="fill:white;"/>
            </g>
            <g transform="matrix(0.29459,0,0,0.29459,172.593,2189.69)">
                <path d="M364.973,774.866C339.751,746.587 292.472,689.996 265.986,635.84L265.563,634.972C265.233,634.829 264.776,634.625 264.455,634.473C226.702,616.569 253.231,535.16 260.699,514.465C224.304,480.275 320.461,348.739 320.461,348.739L319.676,348.759C186.637,351.838 404.821,198.357 475.178,155.764C499.691,140.925 522,136.102 540.668,136.123L541.296,136.126C575.976,136.368 597.955,153.256 597.955,153.256C597.955,153.256 749.756,-9.996 879.692,47.326C978.796,91.046 1281.35,237.194 1175.43,257.589L1174.8,257.707C1174.8,257.707 1234.82,280.473 1279.06,334.345L1279.06,334.349C1289.58,347.157 1299.2,361.722 1306.91,378.154C1327.33,413.52 1348.19,459.096 1327.74,469.891C1321.63,473.226 1313.12,472.463 1308.49,471.689C1345.57,535.049 1347.81,631.625 1344.58,656.144C1342.15,674.598 1326.67,667.295 1317.63,661.287C1275.84,732.786 1264.12,764.859 1261.11,778.69C1265.01,779.275 1269.23,779.946 1273.82,780.714C1327.3,789.675 1331.31,818.619 1334.69,837.509C1338.08,856.426 1344.97,967.61 1163.32,1035.31C1121.42,1115.08 1035.95,1181.1 998.24,1207.64C997.933,1207.93 997.615,1208.23 997.282,1208.54C1039.62,1213.67 1164.08,1232.25 1229.47,1279.27C1271.9,1309.78 1261.26,1404.56 1255.84,1420.45C1297.07,1449.81 1320.97,1480.17 1349.12,1533.07C1349.18,1533.01 1356.49,1545.81 1342.37,1550.81C1331.01,1554.82 1326.7,1543.48 1326.7,1543.48C1325.27,1541.3 1288.53,1448.86 1195.9,1417.89C1183.82,1413.86 1183.89,1413.65 1183.89,1413.65C1133.97,1447.34 1016.06,1510.39 969.229,1537.35C914.366,1568.93 910.42,1564.68 910.42,1564.68C910.42,1564.68 859.099,1561.57 829.927,1561.87C798.809,1562.18 802.354,1544.83 802.354,1544.83C802.165,1536.86 654.587,1498.94 603.943,1477.83C557.639,1458.53 470.042,1410.5 445.161,1392.17C337.413,1461.36 306.488,1539.89 305.587,1542.33L305.565,1542.39C305.565,1542.39 302.726,1556.82 290.938,1554.34C276.588,1551.33 281.868,1537.24 281.945,1537.29C303.532,1472.96 360.135,1422.68 400.186,1393.62C387.123,1377.41 352.509,1309.42 428.066,1260.73C510.578,1207.54 612.091,1212.87 612.091,1212.87C612.091,1212.87 505.063,1148.66 417.086,1036.39C408.095,1042 389.557,1041.75 352.204,1009.07C287.613,952.552 295.342,944.379 284.609,926.991C275.025,911.465 241.44,859.04 278.533,804.86C308.204,761.521 350.225,778.264 365.852,786.7C365.551,782.76 365.258,778.815 364.973,774.866ZM1207.49,1396.76C1215.02,1399.34 1224.88,1402.94 1236.21,1407.65C1238.57,1382.14 1241.8,1320.16 1219.89,1301.8C1168.96,1259.11 1040.47,1231.3 961.563,1227.94C947.834,1233.15 934.057,1237.18 928.016,1238.88C925.994,1244.99 919.952,1267.85 929.607,1300.11C949.873,1336.61 993.317,1350.66 996.007,1351.5L996.139,1351.54C1006.57,1361.84 982.253,1376.51 977.06,1378.17C971.866,1379.84 919.425,1410.88 881.541,1444.19C847.877,1473.8 849.765,1526.43 850.603,1537.79L914.094,1541.38C931.779,1532.87 1148.2,1412.27 1168.66,1396.33C1168.69,1396.28 1168.76,1396.21 1168.87,1396.13C1171,1394.16 1188.69,1378.07 1197.49,1378.46C1203.47,1378.73 1208.07,1382.7 1209.11,1387.89C1209.9,1388.62 1210.02,1389.77 1209.27,1391.41C1209.08,1393.15 1208.51,1394.96 1207.49,1396.76ZM681.475,1236.16L694.792,1240.62C697.013,1260.63 693.506,1311.62 691.386,1315.48C689.048,1319.74 670.204,1339.54 670.204,1339.54C670.204,1339.54 661.031,1358.46 730.139,1410.17C780.974,1448.2 814.679,1474.16 829.949,1492.86C827.459,1504.66 825.023,1517.73 824.017,1527.73C795.8,1509.33 729.1,1492.19 655.234,1469.56C583.439,1447.56 468.153,1377.61 468.153,1377.61L468.186,1377.49C468.494,1376.3 470.711,1366.71 462.636,1363.06C454.291,1359.28 443.182,1365.83 442.497,1366.24L442.464,1366.26C439.728,1367.81 430.342,1373.11 417.287,1381.76C405.472,1360.95 386.792,1313.14 439.107,1279.84C503.398,1238.9 613.819,1225.8 681.475,1236.16ZM995.888,640.298C979.597,631.755 955.919,613.985 921.531,579.898C917.908,632.725 869.656,570.053 869.656,570.053L869.587,570.759C857.708,690.64 779.214,566.964 779.214,566.964L779.09,568.218C757.686,780.782 588.557,475.149 591.814,414.052L591.699,413.772C591.699,413.772 543.97,512.002 537.06,551.184C530.149,590.367 533.657,613.37 520.392,609.431C509.979,606.339 505.758,569.951 561.535,454.418L561.062,455.204C477.482,594.082 505.576,624.961 491.682,633.037C477.788,641.112 473.835,626.437 470.397,605.343C468.893,596.113 463.845,588.617 458.642,583.105C459.573,602.248 462.773,612.455 466.673,646.029C467.085,649.578 467.294,652.666 467.324,655.342L504.594,630.516L714.879,651.375C739.86,664.031 707.46,671.246 704.031,689.882C700.602,708.519 685.312,703.863 685.312,703.863C685.312,703.863 466.311,695.304 446.727,691.042C427.144,686.779 443.025,671.528 443.025,671.528L451.357,665.978C438.601,656.705 422.843,634.547 422.843,634.547L422.868,634.967C426.549,696.963 393.332,655.013 384.62,643.037C387.039,727.582 389.797,771.006 397.525,863.275C400.423,897.877 400.54,919.647 406.607,953.782C408.456,964.186 415.45,988.068 420.181,998.724C430.331,1021.59 452.134,1046.5 468.843,1064.59C501.064,1099.47 522.103,1117.41 557.892,1146.91C582.109,1166.86 604.667,1183.91 629.362,1198.13C633.541,1197.04 640.356,1197.32 651.236,1202.14C674.665,1212.52 705.287,1224.18 721.74,1226.7C738.194,1229.22 758.538,1223.67 757.899,1234.29C757.26,1244.92 749.253,1244.16 746.648,1245.04C744.872,1245.64 730.307,1245.99 717.901,1245C718.044,1261.18 718.297,1306.35 716.723,1310.67C714.963,1315.5 703.804,1332.9 697.151,1340.94C700.988,1351.79 718.195,1377.38 792.686,1424.38C814.055,1437.86 828.059,1450.85 836.952,1462.57C846.373,1429.06 935.705,1376.59 963.224,1361.1C954.91,1356.35 941.953,1347.6 923.303,1331.58C892.562,1305.18 897.956,1256.99 900.9,1240.47C886.937,1243.68 879.806,1240.14 880.296,1229.84C880.844,1218.34 904.75,1222.26 913.645,1219.41C917.705,1218.11 933.797,1214.34 946.19,1209.96C964.159,1203.62 977.185,1197.21 979.734,1195.93C1072.15,1122.18 1124.87,1063.52 1152.9,994.797C1181.49,924.7 1201.13,824.993 1203.84,790.377C1204.87,777.192 1205.87,755.207 1206.71,733.045C1175.25,702.285 1153.35,659.579 1142.46,635.124C1110.85,625.775 1072.89,577.198 1072.89,577.198L1072.94,577.386C1073.57,580.1 1080.75,611.783 1077.69,631.09L1082.79,630.516C1091.96,630.873 1094.97,638.949 1097.96,640.777C1100.96,642.605 1129.77,657.425 1147.26,667.448C1164.75,677.471 1166,689.713 1153.12,694.426C1140.25,699.139 910.539,707.475 897.366,704.38C884.193,701.284 893.343,689.845 875.872,673.077C858.401,656.309 883.335,652.967 883.335,652.967L995.888,640.298ZM1140.67,1306.26C1141.05,1305.54 1146.99,1294 1137.47,1288.53C1129.88,1284.16 1123.6,1291.19 1121.86,1296.29L968.674,1286.02C968.106,1286.01 955.957,1284.91 954.634,1294.64C952.651,1309.23 968.201,1308.9 968.201,1308.9L1104.93,1316.87C1076.11,1358.69 975.649,1423.61 975.649,1423.61C975.027,1423.78 966.32,1429.57 970.999,1438.52C977.076,1450.14 995.054,1438.3 995.054,1438.3C1110.44,1370.14 1140.65,1306.29 1140.65,1306.29L1140.67,1306.26ZM518.433,1315.83C518.049,1315.12 512.054,1303.6 521.543,1298.08C529.119,1293.68 535.426,1300.69 537.189,1305.78L620.332,1298.09L620.359,1298.09C620.928,1298.07 630.055,1297.85 631.274,1305.78C633.028,1317.18 620.161,1320.77 620.161,1320.77L554.222,1326.27C604.266,1382.12 681.235,1409.19 681.235,1409.19L681.265,1409.19C681.887,1409.36 691.789,1412.14 687.153,1421.11C681.13,1432.77 660.681,1423.31 660.681,1423.31L660.4,1423.21C564.673,1388.12 518.452,1315.87 518.452,1315.87L518.433,1315.83ZM733.243,1075.96L733.225,1075.96C732.455,1076.01 705.483,1073.29 694.449,1055.73L694.437,1055.71C694.194,1055.28 690.354,1048.27 694.449,1044.28C698.665,1040.16 704.279,1042.94 707.07,1046.15L707.077,1046.15L707.093,1046.18C707.431,1046.83 713.176,1057.25 734.596,1059.88L867.556,1067L867.582,1067C868.734,1067.03 877.267,1067.87 876.764,1075.35C876.33,1081.81 867.076,1082.64 867.076,1082.64L733.243,1075.96ZM375.241,889.184C374.971,885.37 374.724,881.502 374.5,877.592C371.989,856.302 369.801,834.245 367.885,811.858C351.243,799.315 320.74,784.037 295.954,814.714C260.905,858.093 292.862,903.622 301.307,916.57C310.765,931.072 305.32,943.925 362.235,991.06C382.02,1007.45 394.805,1014.8 403.065,1017.42C390.16,993.719 382.003,957.761 377.441,914.393C370.835,912.326 359.512,909.097 356.437,910.21C352.018,911.81 338.465,907.703 342.451,893.715C345.3,883.718 361.229,885.503 375.241,889.184ZM1205.96,922.919C1199.39,945.097 1190.73,969.96 1178.93,998.535C1177.5,1002 1176.54,1005.65 1175.19,1009.19C1313.45,944.404 1314.13,861.973 1312.42,847.21C1310.71,832.385 1306.37,810.037 1262.52,803.074C1242.77,799.938 1235.99,801.859 1229.29,807.655C1225.35,834.267 1221.68,862.42 1212.92,897.462C1227.12,894.161 1259.55,888.416 1259.56,903.887C1259.58,922.814 1245.52,918.359 1241.37,917.953C1238.41,917.665 1217.67,920.982 1205.96,922.919ZM789.953,926.599C798.232,926.804 802.579,926.973 802.579,926.973C802.579,926.973 811.068,926.811 810.728,934.578C810.382,942.492 802.602,941.346 802.602,941.346L780.289,941.155C780.289,941.155 764.543,941.13 767.875,923.017C771.206,904.903 783.256,862.698 783.256,862.698L783.261,862.666C783.368,862.009 785.204,851.495 793.686,852.936C797.833,853.64 800.66,856.294 799.974,864.432L785.052,920.804C785.052,920.804 782.326,927.009 789.953,926.599ZM733.325,799.399C736.565,810.075 737.722,821.377 736.132,831.909C733.378,850.155 723.332,867.945 711.303,881.654C698.555,896.183 681.787,906.126 663.835,912.786C640.638,921.393 614.437,926.642 589.64,924.691C540.776,920.846 475.865,892.558 473.485,835.602C473.272,830.489 473.519,825.336 474.237,820.27C480.309,777.468 509.097,741.112 548.766,724.51C559.11,720.181 571.964,717.074 583.198,715.722C588.06,715.136 592.969,714.971 597.865,714.884C657.655,713.824 691.335,735.902 719.94,773.06C722.959,776.982 725.654,781.317 727.956,785.92C748.648,783.467 821.731,776.308 882.39,789.064C884.296,785.629 886.423,782.374 888.741,779.363C917.347,742.205 951.026,720.126 1010.82,721.187C1015.71,721.274 1020.62,721.439 1025.48,722.025C1036.72,723.377 1049.57,726.484 1059.92,730.813C1099.58,747.414 1128.37,783.771 1134.44,826.572C1135.16,831.638 1135.41,836.792 1135.2,841.904C1132.82,898.861 1067.9,927.149 1019.04,930.994C994.244,932.945 968.044,927.696 944.846,919.089C926.894,912.429 910.127,902.486 897.378,887.957C885.349,874.248 875.303,856.458 872.549,838.212C870.74,826.225 872.488,813.24 876.817,801.318C854.812,797.876 799.469,791.341 733.325,799.399ZM1009.39,734.706C1013.78,734.816 1018.19,734.926 1022.55,735.437C1032.6,736.616 1044.13,739.325 1053.42,743.111C1088.5,757.407 1114.74,788.872 1120.25,826.73C1128.66,884.423 1064.66,914.242 1016.77,917.912C994.542,919.615 971.102,915.054 950.239,907.516C939.675,903.699 929.532,898.79 920.532,891.98C910.865,884.665 902.9,875.998 896.703,865.535C891.825,857.299 886.941,846.769 885.41,836.894C882.577,818.613 889.544,800.315 899.93,785.506C923.631,751.71 959.683,733.462 1009.39,734.706ZM599.287,728.403C594.897,728.513 590.496,728.623 586.135,729.135C576.079,730.314 564.549,733.022 555.259,736.808C520.181,751.104 493.944,782.57 488.429,820.427C480.025,878.121 544.021,907.939 591.911,911.609C614.139,913.312 637.579,908.751 658.442,901.214C669.007,897.397 679.149,892.488 688.149,885.677C697.816,878.363 705.781,869.695 711.978,859.232C716.856,850.996 721.74,840.466 723.271,830.591C726.104,812.31 719.137,794.012 708.751,779.203C685.051,745.407 648.999,727.159 599.287,728.403ZM999.621,790.477C1015.03,790.477 1027.55,803.167 1027.55,818.798C1027.55,834.43 1015.03,847.12 999.621,847.12C984.207,847.12 971.693,834.43 971.693,818.798C971.693,803.167 984.207,790.477 999.621,790.477ZM615.004,781.668C631.66,781.668 645.183,794.931 645.183,811.267C645.183,827.603 631.66,840.866 615.004,840.866C598.348,840.866 584.825,827.603 584.825,811.267C584.825,794.931 598.348,781.668 615.004,781.668ZM1208.57,677.177C1208.25,688.239 1207.77,703.667 1207.2,719.932C1192.5,704.792 1174.43,679.294 1153.67,636.633C1156.2,636.501 1158.64,636 1160.96,635.074C1169.29,647.619 1190.33,676.407 1208.57,677.177ZM1016.78,631.363L1016.78,631.363C991.103,640.495 940.662,587.831 921.577,566.477C921.236,559.304 920.363,550.799 918.861,540.779L918.653,539.408C918.653,539.408 971.458,600.791 1016.78,631.363ZM266.156,518.321C269.209,519.928 271.605,520.504 271.605,520.504C271.605,520.504 247.684,580.411 257.667,618.746C250.296,607.188 246.03,579.185 266.156,518.321ZM591.699,413.772C591.786,413.974 591.907,414.119 592.096,413.938L592.098,413.936L591.699,413.772ZM1212.73,286.335C1229.7,300.521 1247.57,317.568 1262.93,336.772C1275.4,350.23 1286.31,364.637 1294.11,379.635C1280.18,348.016 1255.71,312.399 1212.73,286.335Z"/>
            </g>
        </g>
    </g>
    <g transform="matrix(1,0,0,1,-331.429,-2402.35)">
        <g transform="matrix(1,0,0,1,0,-39.9741)">
            <g transform="matrix(1,0,0,1,82.3452,392.733)">
                <path d="M656.988,2353.35C656.766,2353.43 656.525,2353.5 656.263,2353.56C656.002,2353.62 655.744,2353.65 655.488,2353.65C655.055,2353.65 654.691,2353.58 654.397,2353.45C654.102,2353.32 653.863,2353.13 653.68,2352.9C653.497,2352.67 653.366,2352.38 653.288,2352.05C653.211,2351.72 653.172,2351.35 653.172,2350.95L653.172,2346.47L650.272,2346.47L650.272,2353.45L648.905,2353.45L648.905,2346.47L647.805,2346.47L647.805,2345.43L648.905,2345.35L648.905,2344.07C648.905,2343.23 649.097,2342.58 649.48,2342.1C649.863,2341.62 650.461,2341.38 651.272,2341.38C651.527,2341.38 651.769,2341.41 651.997,2341.46C652.225,2341.51 652.433,2341.57 652.622,2341.65L652.322,2342.7C652.022,2342.57 651.716,2342.5 651.405,2342.5C650.65,2342.5 650.272,2343.02 650.272,2344.07L650.272,2345.35L653.238,2345.35L653.405,2343.08L654.538,2343.08L654.538,2345.35L656.738,2345.35L656.738,2346.47L654.538,2346.47L654.538,2350.97C654.538,2351.47 654.633,2351.85 654.822,2352.12C655.011,2352.4 655.338,2352.53 655.805,2352.53C655.95,2352.53 656.105,2352.51 656.272,2352.47C656.438,2352.42 656.588,2352.37 656.722,2352.32L656.988,2353.35Z" style="fill:rgb(204,204,204);"/>
                <text x="623.888px" y="2353.45px" style="font-family:'SourceSansPro-Regular', 'Source Sans Pro', sans-serif;font-size:16.667px;fill:rgb(204,204,204);">Cr<tspan x="638.772px 657.205px 664.405px " y="2353.45px 2353.45px 2353.45px ">ay.</tspan> Blogg<tspan x="711.572px 719.838px 724.672px " y="2353.45px 2353.45px 2353.45px ">er.</tspan> T<tspan x="740.355px 745.722px " y="2353.45px 2353.45px ">ra</tspan>veller<tspan x="791.838px " y="2353.45px ">.</tspan> Big f<tspan x="829.555px " y="2353.45px ">a</tspan>n of Apple. L<tspan x="923.338px 932.305px 940.022px " y="2353.45px 2353.45px 2353.45px ">ove</tspan> of Color<tspan x="1005.59px " y="2353.45px ">.</tspan> Doggies ar<tspan x="1086.06px " y="2353.45px ">e</tspan> my f<tspan x="1127.19px " y="2353.45px ">a</tspan>ve.</text>
            </g>
            <g transform="matrix(1,0,0,1,82.9327,374.457)">
                <text x="623.888px" y="2353.45px" style="font-family:'SourceSansPro-Regular', 'Source Sans Pro', sans-serif;font-size:20.833px;fill:rgb(204,204,204);">A De<tspan x="662.68px " y="2353.45px ">v</tspan>eloper&apos;<tspan x="733.159px " y="2353.45px ">s</tspan> F<tspan x="755.68px " y="2353.45px ">a</tspan>ux P<tspan x="802.284px " y="2353.45px ">a</tspan>s</text>
            </g>
        </g>
        <g>
            <g transform="matrix(0.94016,0,0,0.888216,38.9232,290.958)">
                <rect x="709.775" y="2649.62" width="638.19" height="3.989" style="fill:rgb(204,204,204);"/>
            </g>
            <g>
                <g transform="matrix(1,0,0,1,112.295,240.011)">
                    <text x="623.888px" y="2353.45px" style="font-family:'HelveticaNeue', 'Helvetica Neue';font-size:20.833px;fill:rgb(204,204,204);">+86 131-1111-2831</text>
                    <text x="623.888px" y="2374.87px" style="font-family:'HelveticaNeue', 'Helvetica Neue';font-size:20.833px;fill:rgb(204,204,204);">Meniny@miriding.com</text>
                </g>
                <g transform="matrix(1,0,0,1,82.2952,242.241)">
                    <text x="623.888px" y="2353.45px" style="font-family:'HelveticaNeue', 'Helvetica Neue';font-size:20.833px;fill:rgb(204,204,204);">T<tspan x="642.034px " y="2353.45px ">:</tspan></text>
                    <text x="623.888px" y="2374.87px" style="font-family:'HelveticaNeue', 'Helvetica Neue';font-size:20.833px;fill:rgb(204,204,204);">M:</text>
                </g>
            </g>
        </g>
        <g>
            <g transform="matrix(1,0,0,1,81.5952,173.408)">
                <text x="623.888px" y="2353.45px" style="font-family:'Old-Newspapers-Sung', 'Old Newspapers Sung';font-size:33.333px;">软件项目经理 SPM</text>
            </g>
            <g transform="matrix(1,0,0,1,-281.661,374.076)">
                <text x="982.544px" y="2112.85px" style="font-family:'Old-Newspapers-Sung', 'Old Newspapers Sung';font-size:66.667px;">李申翊</text>
            </g>
        </g>
    </g>
</svg>
