<?xml version="1.0" encoding="UTF-8" standalone="no"?>
<!DOCTYPE svg PUBLIC "-//W3C//DTD SVG 1.1//EN" "http://www.w3.org/Graphics/SVG/1.1/DTD/svg11.dtd">
<svg width="100%" height="100%" viewBox="0 0 1846 1536" version="1.1" xmlns="http://www.w3.org/2000/svg" xmlns:xlink="http://www.w3.org/1999/xlink" xml:space="preserve" xmlns:serif="http://www.serif.com/" style="fill-rule:evenodd;clip-rule:evenodd;stroke-linejoin:round;stroke-miterlimit:2;">
    <g id="signature" transform="matrix(1,0,0,1,-269.617,-58.3742)">
        <path d="M936.43,792.363C789.66,760.706 670.097,687.549 625.753,539.736C603.548,465.718 582.569,390.291 602.115,312.106C687.368,-28.905 1159.59,-17.722 1249.11,295.594C1260.18,334.344 1270.72,381.79 1262.54,422.691C1238.44,543.173 1192.05,657.377 1120.58,755.083C1344.83,713.61 1571.95,685.54 1798.8,668.09C1817.37,666.662 1996.34,652.261 2071.11,650.477C2087.18,650.093 2098.77,650.394 2103.61,651.316C2107.89,652.132 2110.32,653.956 2111.49,655.122C2114.46,658.096 2115.25,661.451 2114.76,664.89C2114.45,667.113 2113.41,670.157 2110.05,672.774C2107.95,674.41 2102.02,676.979 2094.38,679.213C2080.72,683.206 2060.61,687.584 2057.9,688.26C2022.65,697.072 1986.91,705.183 1950.39,713.298C1842.16,737.349 1731.28,760.068 1621.66,772.248C1616.34,772.839 1610.9,773.46 1605.34,774.11L1605.21,775.884C1602.05,813.478 1580.6,889.743 1567.69,923.166C1563.69,933.507 1559.86,940.281 1557.72,942.422C1554.01,946.128 1550.18,946.929 1546.88,946.687C1543.59,946.446 1540.15,945.001 1537.27,941.553C1534.52,938.274 1531.79,930.9 1530.33,922.623C1528.42,911.783 1528.27,899.568 1528.98,896.723C1537.1,864.247 1538.39,843.967 1556.85,825.512C1561.14,821.22 1568.11,821.22 1572.4,825.512C1572.84,825.945 1573.23,826.404 1573.57,826.886C1576.46,814.863 1578.95,803.204 1580.74,792.82C1581.75,786.994 1582.54,781.59 1583.03,776.783C1571.87,778.142 1560.34,779.578 1548.48,781.058C1526.95,794.385 1505.29,811.293 1499.07,817.46C1496.5,821.857 1494.31,825.156 1493.08,826.38C1493.18,826.287 1493.37,826.067 1493.37,826.067L1492.07,828.197L1491.79,828.689L1491.49,829.162L1491.17,829.614L1490.83,830.046L1490.47,830.458L1490.09,830.848L1489.69,831.217L1489.29,831.565L1488.86,831.89L1488.42,832.194L1487.97,832.475L1487.51,832.734L1487.04,832.969L1486.55,833.182L1486.06,833.371L1485.56,833.536L1485.05,833.677L1484.53,833.793L1484.01,833.885L1483.49,833.952L1482.96,833.994L1482.43,834.01L1481.9,834.001L1481.36,833.965L1480.83,833.903L1480.3,833.815L1479.77,833.699C1479.59,833.652 1479.42,833.604 1479.24,833.557L1478.72,833.386L1478.2,833.188L1477.69,832.962L1477.18,832.708L1476.69,832.428L1476.21,832.127L1475.76,831.806L1475.33,831.465L1474.92,831.106L1474.53,830.729L1474.16,830.335L1473.81,829.926L1473.49,829.502L1473.18,829.064L1472.9,828.613L1472.64,828.151L1472.41,827.677L1472.19,827.193L1472.01,826.7L1471.84,826.198L1471.7,825.69L1471.58,825.175L1471.49,824.654L1471.42,824.129L1471.38,823.601L1471.37,823.07L1471.38,822.537L1471.41,822.003L1471.47,821.47L1471.56,820.938L1471.68,820.407L1471.82,819.88L1471.99,819.357L1472.19,818.839L1472.41,818.326L1472.67,817.82C1472.67,817.82 1477.96,808.216 1482.32,803.188C1484.62,798.949 1487.28,793.561 1489.67,788.372L1488.6,788.503C1463.21,805.116 1426.13,839.191 1415.31,844.598C1411.04,846.732 1404.52,845.912 1401.15,842.538C1396.88,838.276 1395.19,832.679 1396.42,825.865C1397.79,818.253 1404.53,807.673 1411.88,797.401L1405.48,798.09L1402.81,798.371C1376.43,818.281 1345.06,849.134 1339.87,856.048C1338.79,857.489 1336.21,860.647 1335.03,861.511C1333.61,862.539 1332.26,863.066 1331.17,863.355C1327.11,864.425 1323.83,863.342 1321.21,861.178C1319.57,859.818 1317.13,857.374 1317.13,852.386C1317.13,849.644 1318.92,843.685 1323.02,836.238C1327.73,827.698 1335.46,815.781 1343.3,804.156C1337.56,804.66 1331.81,805.149 1326.04,805.62C1320.05,809.026 1315.37,811.928 1313.26,813.734C1263.42,856.453 1223.14,898.069 1182.59,950.211C1165.75,971.855 1151.41,994.34 1137.92,1017.95C1135.1,1022.88 1128.49,1032.13 1128.49,1032.13C1125.53,1036.26 1120.12,1037.82 1115.41,1035.9C1110.7,1033.99 1107.91,1029.09 1108.68,1024.06C1108.68,1024.06 1111.01,1009.38 1113.75,1002.53C1124.35,976.016 1136,950.033 1145.98,923.437C1152.85,905.107 1189.36,850.314 1211.73,812.36C1209.34,813.963 1207.6,815.157 1206.94,815.651C1206.37,816.077 1205.78,816.538 1205.16,817.036C1198.46,830.279 1188.52,844.417 1185.99,848.206C1172.67,868.19 1151.94,888.439 1134.68,905.7C1133.45,906.924 1126.29,915.587 1124.73,917.165C1117.56,924.415 1109.64,918.255 1108.84,917.451C1106.45,915.063 1104.85,911.828 1104.75,907.537C1104.66,903.914 1106.15,898.334 1109.83,891.709C1120.91,871.744 1153.58,835.181 1176.77,812.965C1170.28,813.036 1163.79,813.068 1157.32,813.058C1106.08,839.049 1056.8,885.097 1013.53,940.355C995.828,1002.37 963.675,1075.65 952.155,1107.33C897.965,1256.35 852.933,1423.65 852.933,1582.42L852.933,1582.51L852.932,1582.78C852.895,1618.38 847.415,1631.74 841.933,1629.53C836.451,1631.75 830.97,1618.38 830.935,1582.78L830.933,1582.51L830.933,1550.11C830.933,1530.84 833.871,1511.1 833.871,1491.35L833.871,1482.54C833.871,1415.33 833.732,1349.9 839.792,1283.24C849.184,1179.93 909.454,1039.46 992.436,931.646L993.526,930.238C994.812,925.589 996.007,921.009 997.097,916.525C1000.32,903.255 1002.73,890.924 1003.62,880.248C999.565,883.654 995.45,887.023 991.287,890.354C978.17,900.847 894.822,965.42 852.807,981.653C844.965,984.683 838.222,986.116 833.155,985.998C827.17,985.858 822.652,983.799 819.466,980.613C816.214,977.36 814.231,972.87 814.259,967.033C814.281,962.158 815.953,955.721 819.519,948.316C830.378,925.765 860.022,890.587 893.174,862.643C922.543,837.887 954.798,819.194 979.032,817.904C989.11,817.368 998.074,819.552 1005.56,824.62C1010.31,827.836 1014.53,832.258 1017.96,838.139C1028.18,828.546 1038.06,818.684 1047.59,808.571C1029.44,807.015 1011.5,805.017 993.827,802.518C929.081,816.104 864.625,830.878 800.535,846.9C685.035,875.775 569.176,904.469 456.157,942.142C416.795,955.262 375.955,967.268 337.561,981.666C323.587,986.906 313.256,985.884 299.698,994.018C297.324,995.443 291.643,999.253 288.955,1001.07C288.446,1001.54 287.882,1001.97 287.268,1002.35C277.343,1008.46 271.066,998.953 270.903,998.646C270.547,997.976 266.737,990.333 273.985,984.69C275.229,983.722 284.64,977.397 288.379,975.154C303.284,966.21 314.474,966.827 329.836,961.066C368.48,946.575 409.581,934.477 449.2,921.271C562.753,883.42 679.154,854.568 795.199,825.557C842.087,813.835 889.171,802.779 936.43,792.363ZM969.172,1003.43C910.191,1096.66 869.174,1203.04 861.701,1285.24C859.688,1307.39 858.369,1329.4 857.508,1351.39C875.954,1265.03 902.384,1179.82 931.48,1099.81C938.733,1079.86 954.305,1043.24 969.172,1003.43ZM1001.02,853.502C999.089,848.647 996.543,845.084 993.222,842.836C987.256,838.796 979.405,839.161 970.618,841.471C951.377,846.529 928.674,861.492 907.353,879.464C876.899,905.134 849.316,937.145 839.341,957.86C838.481,959.646 837.768,961.738 837.25,963.494C837.78,963.404 838.303,963.295 838.775,963.168C844.844,961.541 852.39,958.131 860.817,953.673C903.558,931.063 966.46,882.042 977.544,873.174C985.551,866.768 993.376,860.212 1001.02,853.502ZM1285.63,808.613C1269.75,809.66 1253.76,810.555 1237.72,811.259C1236.01,814.361 1234.13,817.644 1232.13,821.071C1210.54,857.998 1173.4,912.971 1166.58,931.162C1165.63,933.67 1164.68,936.174 1163.71,938.671L1165.22,936.704C1203.05,888.06 1240.65,848.363 1285.63,808.613ZM1569.07,844.747C1562.78,852.423 1559.92,860.776 1557.45,870.722C1555.23,879.65 1553.39,889.723 1550.47,901.486L1550.53,903.129C1550.56,903.777 1550.59,904.426 1550.63,905.075L1550.66,905.707C1556.39,889.434 1563.16,867.215 1569.07,844.747ZM1075.58,810.622C1059.78,828.257 1043.01,845.191 1025.26,861.347C1026.19,870.513 1025.68,881.432 1023.98,893.553C1052.69,861.385 1083.44,833.573 1115.19,812.414C1101.93,812.016 1088.72,811.426 1075.58,810.622ZM1445.17,793.678L1440.52,794.213C1439.29,796.363 1437.89,798.578 1436.38,800.821L1438.3,799.25C1439.56,798.227 1440.82,797.205 1442.07,796.183L1445.17,793.678ZM2020.96,674.607C1936.36,679.145 1815.54,688.868 1800.49,690.025C1566.33,708.037 1331.88,737.397 1100.54,781.22L1099.03,783.089C1098.13,784.2 1097.22,785.311 1096.32,786.423L1093.65,789.658C1112.99,790.586 1132.48,791.068 1152.03,791.169C1162.03,786.298 1172.09,782.151 1182.17,778.789C1193.81,774.91 1201.08,776.735 1205.1,779.459C1207.7,781.219 1209.69,783.569 1210.9,786.518C1219.61,780.771 1228.93,774.719 1231.94,772.93C1235.8,770.636 1238.7,770.865 1239.12,770.888C1242.92,771.094 1245.25,772.866 1246.78,774.601C1248.45,776.495 1249.53,778.862 1249.53,781.88C1249.53,783.62 1249.17,786.002 1248.29,788.896C1271.78,787.733 1295.13,786.176 1318.18,784.341C1335.01,774.311 1357.79,762.153 1370.16,757.287C1376.1,754.949 1380.67,754.3 1382.82,754.506C1386.33,754.842 1388.67,756.356 1390.26,757.944C1393.46,761.143 1394.61,765.125 1393.52,769.709C1393.08,771.523 1392.12,773.636 1390.63,775.642C1390.13,776.325 1389.44,777.112 1388.76,777.846L1394.55,777.249C1401.73,772.028 1408.45,767.709 1414.14,764.928C1420.11,762.013 1425.35,760.625 1429.33,760.564C1434.59,760.484 1438.67,762.281 1441.67,765.288C1443.5,767.119 1444.83,769.216 1445.62,771.581C1457.59,770.185 1469.37,768.77 1480.93,767.353C1483.57,765.74 1486.05,764.353 1488.32,763.247C1493.68,760.642 1498.37,759.418 1501.91,759.344C1506.66,759.246 1510.37,760.784 1513.16,763.357L1515.65,763.047L1541.09,759.847C1547.3,756.105 1553.43,752.709 1559.17,749.949C1567.38,745.997 1574.91,743.325 1580.93,742.395C1587.09,741.441 1592.19,742.233 1595.99,744.132C1598.85,745.562 1601.54,748.089 1603.31,752.201C1608.71,751.568 1614.03,750.96 1619.23,750.382C1728.07,738.289 1838.16,715.702 1945.62,691.822C1971.08,686.164 1996.16,680.509 2020.96,674.607ZM1065.48,787.974L1066.19,788.026L1066.38,787.797L1065.48,787.974ZM1088.39,761.132C1166.22,661.968 1215.92,543.621 1240.97,418.376C1248.49,380.785 1238.13,337.252 1227.96,301.638C1144.32,8.896 703.113,-1.175 623.458,317.441C604.905,391.656 625.747,463.155 646.825,533.415C689.93,677.097 809.21,744.904 953.373,773.402C966.415,775.98 979.66,778.238 993.072,780.197C1024.77,773.565 1056.54,767.214 1088.39,761.132Z"/>
        <path d="M1336.51,614.818C1339.6,617.624 1377.78,652.239 1385.44,659.13C1389.95,663.191 1390.32,670.152 1386.25,674.665C1382.19,679.178 1375.23,679.544 1370.72,675.483C1362.35,667.954 1326.36,637.092 1319.38,628.69C1315.82,624.399 1315.63,620.531 1315.72,619.068C1316.13,613.01 1321.37,608.419 1327.43,608.822C1331.44,609.089 1334.81,611.477 1336.51,614.818Z"/>
    </g>
</svg>
