<?xml version="1.0" encoding="UTF-8" standalone="no"?>
<!DOCTYPE svg PUBLIC "-//W3C//DTD SVG 1.1//EN" "http://www.w3.org/Graphics/SVG/1.1/DTD/svg11.dtd">
<svg width="100%" height="100%" viewBox="0 0 3375 1391" version="1.1" xmlns="http://www.w3.org/2000/svg" xmlns:xlink="http://www.w3.org/1999/xlink" xml:space="preserve" xmlns:serif="http://www.serif.com/" style="fill-rule:evenodd;clip-rule:evenodd;stroke-linejoin:round;stroke-miterlimit:2;">
    <g transform="matrix(1,0,0,1,-1115.54,-908.281)">
        <path d="M2675.68,1623.77C2674.93,1622.8 2674.46,1621.61 2674.34,1620.3C2672.67,1616.76 2675.65,1615.03 2676.05,1614.07C2677.31,1611.1 2680.95,1610.64 2687.48,1614.52C2689.84,1615.92 2694.67,1624.54 2696.2,1628.62C2697.29,1635.51 2699.44,1641.65 2700.27,1648.54C2700.89,1653.68 2700.49,1659.01 2699.81,1664.69C2698,1677.61 2694.43,1690.21 2690.15,1702.6C2688.15,1708.4 2686.4,1714.33 2683.79,1719.85C2681.2,1725.35 2677.77,1730.09 2674.96,1735.39C2672.69,1742.21 2665.31,1745.89 2658.5,1743.62C2651.69,1741.35 2648,1733.98 2650.27,1727.16C2651.02,1722.08 2651.49,1717.12 2652.91,1712.13C2657.9,1694.43 2667.01,1677.85 2670.21,1659.75L2673.83,1628.62C2674.27,1627.45 2673.96,1623.96 2675.39,1623.78L2675.68,1623.77ZM2677.66,1625.6C2678.26,1626.17 2678.94,1626.39 2679.64,1626.42C2678.93,1626.25 2678.27,1625.98 2677.66,1625.6Z"/>
        <path d="M2748.89,1394.07C2749.14,1395.13 2748.55,1397.3 2748.14,1399.55C2747.08,1405.52 2744.09,1414.4 2741.16,1426.72C2738.4,1436.49 2728.17,1453.47 2722.98,1468.12C2721.16,1473.27 2717.43,1477.96 2721.8,1480.38C2727.39,1483.17 2729.66,1489.98 2726.87,1495.57C2724.07,1501.15 2717.27,1503.42 2711.68,1500.63C2698.45,1494.77 2694.61,1483.12 2696.97,1469.03C2699.74,1452.54 2714.86,1431.45 2718.45,1419.9C2722.99,1407.46 2725.81,1398.01 2729.01,1392.52C2731.21,1388.73 2733.09,1386.72 2734.38,1385.46C2739.09,1380.88 2742.32,1380.08 2743.95,1380.89C2745.43,1381.62 2751.74,1383.54 2749.86,1390.67C2749.85,1391.92 2749.51,1393.08 2748.89,1394.07Z"/>
        <path d="M2839.5,1770.85C2848.23,1773.97 2859.3,1771.5 2871.99,1766.49C2901.15,1754.97 2936.32,1730.47 2971.41,1700.23C3050.46,1632.11 3129.74,1537.78 3158.42,1509.76C3175,1494.2 3194.86,1478.67 3212.76,1461.95C3224.55,1450.96 3235.43,1439.45 3243.98,1427.24C3245.61,1424.79 3253.27,1416.57 3257.15,1415.15C3260.43,1413.95 3262.95,1415.08 3265.1,1416.83C3266.11,1417.66 3267.98,1423.13 3263.92,1429.92C3257.45,1440.73 3237.4,1465.66 3235.7,1467.59C3213.8,1490.97 3192.83,1522.23 3174.82,1555.08C3159.33,1583.35 3146.1,1612.88 3138.1,1640.38C3147.81,1640.43 3156.95,1640.19 3166.09,1639.54C3178.21,1638.68 3190.34,1637.16 3203.85,1634.76C3211.6,1633.31 3228.61,1632.75 3235.96,1634.83C3240.47,1636.1 3243.36,1638.45 3245.02,1640.55C3248.79,1645.32 3250.85,1652.04 3243.2,1659.87C3219.89,1683.6 3158.79,1744.55 3134.11,1779.28C3171.84,1761.1 3242.99,1730.58 3310.15,1696.03C3318.58,1672.2 3337.56,1645.11 3359.78,1621.25C3390.23,1588.56 3427.06,1561.86 3451.47,1557.19C3468.08,1554.02 3480.42,1558.67 3486.11,1571.8C3486.99,1574.24 3488.03,1578.01 3486.12,1582.28C3484.4,1586.12 3480.35,1591.72 3479.32,1593.39C3467.06,1617.82 3431.53,1645.7 3386.81,1673.34C3373.12,1681.8 3358.56,1690.27 3343.55,1698.61C3341.46,1703.54 3339.8,1708.34 3338.63,1712.93C3336.29,1722.06 3334.88,1730.12 3340.1,1735.65C3342.84,1738.69 3347.21,1738.78 3352.48,1737.85C3367.1,1735.26 3385.76,1725.74 3405.86,1712.58C3470.61,1670.19 3548.87,1592.82 3572.03,1578.01C3575.04,1575.8 3586.11,1565.44 3593.82,1562.32C3599.64,1559.97 3604.46,1561.47 3608.31,1564.49C3609.87,1565.92 3611.99,1573 3608.83,1583.71C3603.57,1601.54 3588.64,1639.89 3584.43,1671.02C3583.33,1679.19 3583.51,1686.68 3584.36,1692.98C3584.63,1695.02 3584.72,1696.95 3585.32,1698.51C3587.74,1697.75 3591.56,1696.36 3594.4,1694.56C3603.57,1688.74 3614.26,1679.52 3625.49,1668.42C3669.63,1624.78 3722.78,1555.85 3744.17,1545.19C3755.2,1539.26 3763.27,1543.62 3766.12,1557.68C3768.11,1567.55 3764.78,1588.89 3763.97,1592.58C3760.39,1609.03 3761.49,1625.16 3766.34,1639.1C3771.16,1652.95 3780.12,1664.55 3793.55,1671.16C3797,1672.89 3802.43,1671.43 3809.2,1669.84C3824.23,1666.32 3843.31,1658.38 3863.23,1648.83C3909.71,1626.56 3960.37,1595.42 3977.25,1585.79C3982.93,1582.54 4030.78,1558.77 4051.11,1552.06C4053.38,1551.31 4055.3,1550.45 4056.88,1550.57C4061.88,1550.93 4063.22,1550.64 4064.38,1551.57C4067.62,1554.15 4070.34,1551.62 4070.97,1553.58C4072.68,1558.91 4079.65,1559.19 4076.23,1563.29C4076.23,1569.53 4071.16,1574.6 4064.92,1574.6C4064.22,1574.6 4063.53,1574.53 4062.86,1574.4C4063.69,1574.85 4064.62,1575.96 4065.72,1574.83C4066.01,1574.52 4067.43,1576.3 4066.85,1575.71C4065.9,1574.75 4064.66,1578.28 4062.21,1579.71C4044.66,1589.97 3997.47,1608.64 3992.08,1611.73C3972.38,1622.99 3907.59,1662.93 3855.73,1685.24C3822.62,1699.49 3793.42,1704.72 3780.09,1698.07C3759.49,1687.6 3745.08,1669.89 3738.43,1648.23C3732.67,1629.47 3732.65,1607.82 3738.75,1586.27C3739.01,1585.35 3739.53,1581.95 3740.08,1577.96C3705.23,1610.71 3641.03,1696.2 3605.01,1719.68C3588.21,1730.63 3574.4,1729.28 3565.44,1721.21C3560.35,1716.62 3556.61,1710.34 3554.85,1702.59C3552.58,1692.59 3554.08,1679.74 3557.45,1665.92C3564.1,1638.66 3578.87,1606.5 3587.47,1586.53C3584.04,1587.94 3580.89,1588.99 3579.79,1589.64C3553.87,1607.67 3457.72,1708.43 3392.13,1748.34C3360.69,1767.46 3333.97,1770.29 3318.98,1756.77C3309.07,1747.43 3304.47,1734.47 3305.27,1719.29C3240.41,1753.33 3174.48,1783.55 3140.41,1800.96C3137.11,1802.98 3126.11,1808.95 3118.8,1810.3C3112.2,1811.51 3107.18,1808.83 3103.72,1805.91C3099.05,1801.97 3096.78,1794.98 3099.19,1785.27C3101.03,1777.87 3107.55,1766.87 3117.24,1754.34C3139.47,1725.62 3179.59,1686.45 3206.76,1660.25C3193.23,1663.22 3180.93,1665.24 3168.62,1666.66C3155.57,1668.16 3142.52,1668.93 3127.96,1669.26C3121.51,1669.4 3115.01,1667.58 3111.36,1664.42C3107.35,1660.96 3103.92,1655.47 3106.16,1645.57C3113.76,1616.66 3126.97,1584.79 3144.08,1554.39C3099.25,1604.84 3023.02,1692.4 2955.3,1750.11C2925.17,1775.78 2896.61,1795.73 2872.15,1804.68C2851.72,1812.15 2833.54,1811.78 2818.55,1805.08C2811.14,1801.74 2805.05,1794.67 2801.18,1785.19C2796.64,1774.05 2795.86,1758.39 2795.85,1749.94C2796.14,1712.57 2820.47,1659.44 2854.9,1612.83C2888.25,1567.67 2930.22,1528.65 2962.21,1513.64C2967.65,1511.7 2974.82,1507.37 2981.56,1504.56C2988.41,1501.71 2994.17,1502.52 2995.09,1501.68C2996.83,1498.23 3001.05,1496.85 3004.49,1498.59C3007.95,1500.33 3009.33,1504.55 3007.59,1508C3007.39,1509.82 3003.96,1517.02 2996.95,1525.44C2991.18,1532.38 2982.35,1538.09 2976.41,1542.02C2948.73,1556.74 2914.62,1594.28 2886.36,1635.28C2858.83,1675.23 2836.43,1718.66 2836.67,1749.94C2836.64,1755.15 2833.51,1774.8 2839.57,1771.57C2840,1771.35 2839.89,1771.1 2839.5,1770.85C2838.42,1770.49 2837.37,1770.02 2836.37,1769.46C2837.07,1769.85 2838.78,1770.35 2839.5,1770.85ZM3125.57,1791.46C3124.81,1792.58 3124.52,1793.41 3125.38,1793.62C3126.84,1793.98 3126.49,1792.87 3125.57,1791.46ZM3464.98,1578.18C3460.82,1576.37 3454.46,1580.13 3446.8,1584C3427.01,1594 3402.34,1615.58 3381.22,1640.34C3373.21,1649.72 3365.78,1659.56 3359.39,1669.39C3365.65,1665.8 3371.78,1662.19 3377.75,1658.56C3419.13,1633.4 3452.23,1608 3463.45,1585.46C3463.82,1584.55 3464.02,1580.66 3464.98,1578.18ZM4059.96,1573.44C4060.53,1574.02 4061.02,1574.76 4062.01,1574.28L4062.21,1574.26L4061.56,1574.09C4061.22,1573.96 4060.87,1573.84 4060.53,1573.71L4059.96,1573.44ZM4055.38,1569.32C4055.54,1571.56 4055.82,1573.22 4058.78,1572.83L4058.89,1572.84C4057.47,1571.95 4056.27,1570.75 4055.38,1569.32Z"/>
        <path d="M1170.42,2254.15C1168.41,2256.14 1165.3,2256.77 1162.59,2255.51C1159.08,2253.88 1157.56,2249.71 1159.19,2246.2C1160.62,2243.99 1162.21,2242.49 1164.42,2241.44C1167.21,2240.1 1171.62,2239.89 1174.61,2238.39C1283.3,2201.45 1476.49,2147.25 1671.15,2098.4C1865.55,2049.61 2061.38,2006.19 2175.42,1988.12C2550.31,1928.74 2802.83,1885.41 3084.35,1849.89C3263.18,1827.32 3453.72,1807.9 3694.7,1789.53L4012.24,1771.41C4030.41,1770.27 4048.74,1769.8 4067.14,1769.73C4109.22,1769.57 4151.63,1771.46 4193.27,1771.5C4205.54,1771.51 4318.49,1769.89 4387.78,1779.17C4410.95,1782.28 4429.55,1786.94 4439.24,1792.3C4449.83,1798.15 4453.73,1805.93 4453.26,1812.92C4452.95,1817.61 4451.23,1823.25 4445.19,1828.43C4438.8,1833.93 4425.23,1840.74 4401.8,1847.55C4364.09,1859.68 4323.04,1866.75 4281.06,1871.57C4220.02,1878.58 4156.96,1880.66 4099.44,1884.62L3586.28,1917.3C3581.41,1917.71 3577.12,1914.08 3576.71,1909.2C3576.31,1904.32 3579.93,1900.03 3584.81,1899.62C3653.2,1893.51 3721.64,1888.28 3790.13,1883.86C3892.78,1877.22 3995.49,1872.05 4098.03,1864.78C4155.2,1860.55 4217.95,1858.65 4278.54,1850.88C4318.93,1845.69 4358.31,1837.78 4394.39,1825.32C4403.35,1821.94 4411.65,1817.73 4417.64,1814.41C4409.13,1812.3 4397.5,1810.85 4384.12,1809.4C4315.93,1802.02 4205.31,1802.33 4193.27,1802.34C4151.68,1802.38 4109.3,1800.63 4067.27,1800.83C4049.48,1800.91 4031.75,1801.33 4014.17,1802.42L3696.98,1820.32C3456.49,1837.61 3266.33,1856.16 3087.82,1877.91C2806.42,1912.2 2553.97,1954.44 2179.18,2012.19C2065.52,2029.71 1870.47,2072.89 1676.48,2119.95C1481.98,2167.14 1288.54,2218.21 1179.74,2253.78C1177.08,2254.15 1172.01,2255.81 1170.42,2254.15Z"/>
        <path d="M4042.93,1567.99L4043.07,1567.8C4045.59,1564.87 4050.01,1564.54 4052.94,1567.06C4056.25,1569.86 4056.32,1572.88 4055.66,1575.35C4054.9,1578.21 4044.94,1582.72 4040.21,1584.34L3990.28,1600.68C3952.01,1610.62 3914.23,1621.36 3876.13,1630.83C3850.53,1637.19 3824.79,1642.98 3798.66,1647.58C3682.35,1666.99 3567.62,1698.15 3451.7,1721.75C3401.68,1731.92 3351.44,1740.66 3300.77,1746.56C3051.09,1775.89 2799.81,1816.91 2550.65,1868.09C2301.33,1919.3 2054.15,1980.67 1812.49,2049.12C1727.23,2073.3 1642.53,2097.24 1558.15,2122.65C1502.02,2139.56 1446.02,2157.11 1390.1,2175.86L1246.34,2229.98C1233.55,2234.47 1196.7,2248.89 1180.56,2251.43C1178.07,2251.82 1176.03,2251.62 1174.38,2251C1173.2,2251.66 1171.86,2252.03 1170.42,2252.03C1167.94,2252.99 1166.62,2251 1165.67,2250.81C1160.63,2249.82 1162.29,2245.45 1162.33,2240.62C1162.34,2239.56 1164.04,2238.72 1165.96,2236.22C1166.74,2235.2 1168.66,2232.94 1173.02,2230.38C1187.1,2222.09 1225.81,2212.8 1238.55,2208.17L1382.9,2154.25C1439.11,2135.63 1495.38,2118.18 1551.8,2101.43C1636.4,2076.31 1721.32,2052.74 1806.81,2028.9C2049.17,1961.22 2297.14,1901.17 2547.01,1850.29C2796.77,1799.43 3048.43,1757.72 3298.62,1728.24C3348.75,1722.28 3398.44,1713.43 3447.94,1703.3C3564.05,1679.54 3679.05,1648.55 3795.59,1629.15C3821.39,1625.09 3846.82,1619.86 3872.12,1614.05C3910.33,1605.29 3948.23,1595.24 3986.61,1586.01L4035.71,1570.84C4037.37,1570.31 4040.89,1568.13 4042.93,1567.99ZM4043.14,1576.97C4043.31,1577.2 4043.53,1577.43 4043.81,1577.67L4043.14,1576.97Z"/>
        <path d="M2192.71,1306.88C2193.26,1306.11 2193.99,1305.44 2194.87,1304.94C2219.86,1295.58 2216.36,1303.04 2204.12,1315.53C2202.42,1317.26 2195.76,1323.43 2193.18,1326.06C2190.24,1329.42 2186.37,1332.2 2182.18,1334.64C2176.61,1337.88 2170.36,1340.23 2165.1,1342.3L2087.39,1381.23C2050.64,1400.77 2005.53,1420.48 1959.07,1435.2C1911.47,1450.28 1862.52,1459.9 1820.13,1460.52C1809.09,1460.69 1774.09,1458.39 1758.39,1446.42C1745.7,1436.75 1739.72,1423.06 1749.39,1403.81C1778.37,1346.33 1890.59,1246.3 2026.32,1153.31C2093.59,1107.23 2166.32,1062.35 2237.78,1025.93C2340.64,973.514 2440.69,938.362 2516.37,937.296C2572.44,936.505 2616.12,954.187 2642.23,992.663C2671.47,1035.93 2675.56,1100.88 2658.6,1174.14C2641.15,1249.55 2601.93,1334.25 2551.97,1411.26C2496.49,1496.78 2427.58,1572.81 2360.38,1616.62C2350.09,1664.88 2336.58,1715.98 2321.03,1766.41C2283.64,1887.66 2234.87,2005.35 2189.89,2069.97C2175.01,2091.36 2160.74,2108.01 2146.7,2116.49C2134.6,2123.79 2123.24,2126.63 2113.12,2125.22C2104.41,2125.22 2097.34,2118.15 2097.34,2109.43C2097.34,2100.72 2104.41,2093.65 2113.12,2093.65C2117.26,2093.07 2120.04,2088.84 2124.51,2085.16C2134.5,2076.91 2145.87,2064.41 2157.62,2047.52C2201.05,1985.08 2250.53,1872.66 2288.42,1756.09C2301.28,1716.53 2312.87,1676.53 2322.53,1637.9C2279.91,1657.88 2238.8,1663.33 2202.88,1650.9C2185.11,1644.28 2172.78,1630.46 2166.62,1610.28C2154.7,1571.3 2167.21,1504.88 2193.72,1446.92C2232.87,1361.36 2301.97,1300.15 2356.51,1355.25C2372.08,1370.61 2380.8,1401.03 2381.72,1442.15C2382.43,1473.86 2378.89,1512.4 2372.03,1554.85C2422.62,1512.29 2472.32,1452.35 2514.1,1386.89C2560.54,1314.14 2596.97,1234.48 2613.67,1163.65C2627.58,1104.68 2628.73,1052.23 2605.61,1017.08C2587.7,989.72 2556.05,979.357 2516.63,979.276C2445.67,979.128 2351.71,1011.78 2254.55,1059.46C2183.96,1094.11 2111.59,1136.46 2045.47,1181.38C1915.9,1269.42 1809.2,1365.18 1781.97,1420.1C1782.6,1418.84 1781.37,1416.72 1780.72,1417.54C1772.99,1427.41 1813.12,1425.51 1820.13,1425.61C1852.06,1426.08 1888.05,1420.72 1924.4,1412.25C1978.52,1399.64 2033.37,1380.09 2076.63,1359.7C2092.08,1352.62 2108.73,1344.68 2125.4,1337.94C2137.02,1333.25 2148.59,1329.16 2159.68,1326.03L2183.46,1316.34C2185.52,1314.32 2190.21,1307.96 2192.71,1306.88ZM2335.23,1582.54C2346.25,1529.36 2352.59,1480.89 2352.27,1442.61C2352,1411.19 2348.19,1387.2 2336.45,1375.31C2302.45,1341.58 2265.92,1377.55 2238.09,1425.83C2211.97,1471.14 2194.32,1530.41 2196.24,1573.4C2197.14,1593.37 2201.28,1609.67 2215.25,1613.79C2246.81,1623.91 2282.58,1613.73 2319.7,1592.2C2324.87,1589.21 2330.05,1585.99 2335.23,1582.54ZM2199.65,1317.88C2200.28,1317.91 2201.02,1317.74 2201.8,1317.12C2201.11,1317.51 2200.39,1317.77 2199.65,1317.88Z"/>
    </g>
</svg>
