<?xml version="1.0" encoding="UTF-8" standalone="no"?>
<!DOCTYPE svg PUBLIC "-//W3C//DTD SVG 1.1//EN" "http://www.w3.org/Graphics/SVG/1.1/DTD/svg11.dtd">
<svg width="100%" height="100%" viewBox="0 0 1024 1024" version="1.1" xmlns="http://www.w3.org/2000/svg" xmlns:xlink="http://www.w3.org/1999/xlink" xml:space="preserve" xmlns:serif="http://www.serif.com/" style="fill-rule:evenodd;clip-rule:evenodd;stroke-linecap:round;stroke-linejoin:round;stroke-miterlimit:1.5;">
    <g transform="matrix(1.25362,0,0,1.22973,-95.1491,-26.8865)">
        <rect x="75.9" y="21.864" width="816.835" height="832.705" style="fill:white;"/>
    </g>
    <g transform="matrix(1,0,0,1,-513.952,-509.184)">
        <path d="M831.245,1019.7C831.245,1019.7 825.665,1028.56 825.918,1037.96C826.172,1047.37 773.051,1215.33 640.963,1255.19C508.874,1295.05 667.078,1292.94 731.413,1255.73C795.748,1218.53 854.514,1114.26 854.514,1114.26L870.707,1102.9L870.72,1111.77L875.363,1114.48C875.363,1114.48 866.698,1118.22 874.176,1122.27C881.654,1126.32 887.706,1128.19 890.106,1131.22C892.505,1134.25 896.699,1139.87 903.366,1140.97C910.033,1142.06 915.27,1146.41 903.841,1163.3C892.413,1180.19 898.665,1188.13 905.758,1191.97C912.85,1195.81 999.007,1231.23 1001.92,1236.73C1004.83,1242.23 1011.17,1244.45 1016.43,1243.29C1021.69,1242.13 1024.1,1239.88 1024.1,1239.88C1024.1,1239.88 1029.59,1240.88 1034.2,1237.77C1038.81,1234.67 1040.75,1231.25 1040.75,1226.05C1040.76,1220.86 1038.46,1222.82 1042.63,1219.28C1046.81,1215.74 1047.55,1209.13 1037.15,1204.49C1026.75,1199.86 1002,1196.25 998.539,1194.66C995.081,1193.08 985.978,1188.53 983.068,1185.45C980.159,1182.37 973.513,1178.41 973.513,1178.41C973.513,1178.41 970.47,1176.23 975.836,1173.57C981.201,1170.92 993.696,1163.76 990.551,1158.83C987.406,1153.91 1004.49,1154.49 1007.51,1154.2C1010.53,1153.91 1015.58,1155.29 1023.99,1150.89C1032.4,1146.5 1053,1149.29 1056.43,1149.75C1059.87,1150.21 1071.21,1155.47 1078.23,1153.27C1085.26,1151.07 1088.38,1147.02 1088.38,1147.02C1088.38,1147.02 1096.25,1146.65 1099.3,1139.63C1102.34,1132.61 1098.97,1129.71 1098.92,1129.24C1098.87,1128.76 1097.1,1127.19 1097.83,1124.65C1098.56,1122.1 1097.4,1109.01 1069.48,1105.44C1041.56,1101.87 1001.84,1113.22 999.249,1115.36C996.659,1117.5 1008.18,1106.08 1009.7,1098.96C1011.23,1091.84 1012.54,1082.27 1018.03,1079.82C1023.53,1077.37 1026.63,1064.77 1026.5,1062.3C1026.36,1059.83 1033.51,1042.59 1033.7,1040.18C1033.89,1037.77 1033.41,1037.52 1032.93,1034.44C1032.46,1031.36 1034.34,1030.58 1035.27,1028.65C1036.21,1026.73 1037.54,1017.02 1036.67,1014.22C1035.79,1011.42 1036.43,1010.96 1039.19,1010.65C1041.96,1010.33 1040.81,984.363 1040.28,982.494C1039.75,980.624 1035.02,961.715 1035.28,956.252C1035.54,950.789 1035.69,933.535 1035.29,930.99C1034.88,928.445 1034.71,899.515 1039.68,889.406C1044.65,879.297 1045.47,850.882 1045.8,846.234C1046.14,841.586 1047.03,812.539 1048.83,808.847C1050.63,805.156 1054.97,798.95 1063.87,803.397C1072.78,807.843 1070.36,836.415 1072,844.231C1073.64,852.048 1073.44,855.188 1076.7,855.994C1079.95,856.8 1083.33,837.601 1083.33,837.601C1083.33,837.601 1091.64,804.625 1086.27,797.142C1080.9,789.659 1095.94,789.084 1098.05,789.343C1100.15,789.601 1105.46,789.394 1111.83,799.547C1118.19,809.7 1110.48,845.289 1109.59,848.358C1108.7,851.428 1106.26,853.269 1109.75,852.405C1113.23,851.541 1111.56,847.727 1113.55,845.537C1115.54,843.346 1115.69,844.019 1116.59,841.401C1117.49,838.782 1126.83,815.614 1126.16,807.628C1125.5,799.643 1121.57,778.534 1120.83,777.413C1120.09,776.293 1118.1,766.139 1118.1,766.139C1118.1,766.139 1130.69,764.463 1136.39,765.859C1142.09,767.254 1138.95,766.116 1142.84,772.456C1146.73,778.795 1149.74,788.777 1149.74,788.777C1149.74,788.777 1153.43,800.863 1152.01,808.43C1150.59,815.997 1147.72,834.633 1144.94,843.932C1142.16,853.23 1141.39,851.663 1143.98,851.875C1146.57,852.088 1152.39,844.762 1154.64,839.222C1156.88,833.681 1166.9,813.492 1167.71,805.529C1168.53,797.567 1169.37,773.311 1167.46,768.646C1165.55,763.982 1166.74,765.771 1170.07,765.656C1173.41,765.542 1184.17,766.866 1185.36,767.392C1186.55,767.919 1190.56,775.937 1191.63,789.599C1192.71,803.262 1195.12,816.803 1189.58,831.694C1184.03,846.585 1173.36,866.338 1174.42,871.16C1175.49,875.982 1169.69,884.138 1168.23,885.03C1166.76,885.923 1166.19,903.419 1164.9,907.486C1163.62,911.554 1162.51,913.457 1164.09,920.769C1165.67,928.082 1162.85,929.576 1168.53,925.858C1174.2,922.14 1177.08,913.256 1177.93,913.016C1178.78,912.776 1187.24,888.738 1188.64,887.021C1190.04,885.303 1189.6,876.938 1196.07,870.917C1202.55,864.897 1217.23,862.665 1216.9,868.444C1216.58,874.222 1210.76,884.189 1210.76,884.189C1210.76,884.189 1209.57,897.729 1207.3,902.144C1205.03,906.56 1205.34,906.645 1205.34,908.759C1205.34,910.874 1189.31,948.365 1171.3,957.085C1153.29,965.806 1141.85,979.73 1138.29,985.276C1134.72,990.821 1133.1,988.042 1131.83,996.034C1130.57,1004.03 1141.14,990.671 1141.74,989.226C1142.35,987.782 1143.31,995.029 1141.78,1001.55C1140.25,1008.07 1141.85,1010.96 1143.15,1011.84C1144.46,1012.72 1141.41,1019 1138.83,1021.82C1136.26,1024.63 1134.44,1032.86 1139.05,1036.03C1143.66,1039.19 1135.34,1044.81 1136.77,1051.76C1138.19,1058.7 1142.2,1060.64 1141.88,1070.53C1141.55,1080.41 1141.35,1115.09 1142.56,1126C1143.76,1136.91 1145.29,1129.5 1144.1,1140.37C1142.91,1151.24 1139.36,1163.22 1140.47,1174.25C1141.58,1185.27 1142.98,1186.57 1138.46,1189.27C1133.95,1191.97 1139.05,1204.62 1139.05,1204.62C1139.05,1204.62 1140.2,1211.55 1136.14,1214.3C1132.08,1217.05 1134.52,1222.76 1135.28,1224.49C1136.04,1226.21 1134.71,1229.4 1134,1230.29C1133.29,1231.17 1132.9,1241.99 1133.58,1243.66C1134.27,1245.33 1138.44,1251.33 1140.26,1256.3C1142.07,1261.27 1144.31,1259.91 1144.25,1263.2C1144.19,1266.5 1143.93,1267.29 1146.37,1269.31C1148.8,1271.32 1150.38,1275.36 1151.66,1276.26C1152.95,1277.15 1156.23,1282.13 1168.91,1274.72C1181.59,1267.31 1178.19,1229.24 1177.1,1222.87C1176.02,1216.49 1177.84,1205.85 1180.19,1200.11C1182.55,1194.36 1178.94,1180.79 1185.05,1175.37C1191.17,1169.95 1191.45,1166.61 1191.23,1161.94C1191,1157.27 1193.55,1149.06 1195.71,1146.18C1197.87,1143.3 1202.84,1108.47 1203.02,1104.7C1203.2,1100.94 1220.34,1051.73 1238.04,1028.75C1255.74,1005.77 1255.77,1001.64 1257.85,1001.13C1259.93,1000.63 1261.26,996.482 1258.02,997.15C1254.79,997.818 1250.9,992.502 1256.88,988.364C1262.85,984.225 1262.88,981.699 1262.81,979.386C1262.74,977.073 1257.41,976.099 1262,973.487C1266.6,970.874 1269.52,965.49 1270.69,972.225C1271.86,978.961 1274.26,989.041 1279.02,992.585C1283.78,996.128 1277.93,1001.19 1283.5,1013.48C1289.06,1025.77 1286.99,1014.15 1288.09,1025.59C1289.18,1037.03 1289.86,1035.98 1291.09,1037.82C1292.33,1039.65 1294.68,1044.34 1298.33,1047.64C1301.98,1050.94 1301.24,1061.93 1304.3,1063.38C1307.37,1064.82 1305.27,1076.67 1309.62,1079.45C1313.97,1082.24 1315.67,1088.42 1322.3,1088.78C1328.93,1089.13 1330.02,1088.06 1332.59,1089.3C1335.16,1090.54 1336.26,1094.09 1336.26,1094.09C1336.26,1094.09 1348.34,1099.35 1355.94,1094.23C1363.54,1089.12 1358.38,1082.7 1366.53,1074.88C1374.67,1067.07 1373.22,1065.38 1380.74,1062.47C1388.26,1059.55 1398.15,1049.56 1398.04,1045.66C1397.92,1041.77 1400.35,1035.53 1402.16,1033.21C1403.97,1030.89 1410.65,1024.49 1410.42,1017.76C1410.18,1011.04 1412.36,1008.6 1414.74,1006.6C1417.12,1004.61 1423.65,1002.03 1427.38,1001.92C1431.1,1001.82 1442.78,998.189 1445.23,996.918C1447.67,995.647 1452.87,995.482 1455.87,993.328C1458.87,991.173 1464.21,988.008 1461.12,984.365C1458.02,980.723 1457.14,980.338 1452.85,978.864C1448.57,977.39 1422.89,967.735 1420.22,963.602C1417.55,959.468 1415.03,960.11 1412.7,957.633C1410.38,955.155 1409.09,951.686 1408.46,949.509C1407.83,947.332 1404.51,935.923 1403,935.626C1401.49,935.328 1393.54,922.57 1393,921.205C1392.46,919.839 1335.82,867.239 1317.88,858.647C1299.94,850.056 1279.66,829.814 1278.03,826.469C1276.4,823.123 1258.68,807.42 1255.46,806.473C1252.23,805.526 1248.25,797.648 1243.49,791.93C1238.72,786.213 1225.9,781.723 1224.29,781.723C1222.68,781.723 1222.59,780.198 1222.59,779.132C1222.59,778.067 1221.22,775.65 1207.18,772.209C1193.14,768.768 1194.71,770.641 1191.34,768.221C1187.98,765.802 1186.18,766.493 1186.18,766.493C1186.18,766.493 1182.2,757.941 1175.1,758.006C1167.99,758.071 1165.99,763.616 1166.56,765.725C1167.12,767.833 1163.6,765.432 1160.96,765.5C1158.32,765.567 1155.87,763.868 1149.32,764.764C1142.76,765.66 1141.37,765.488 1141.37,765.488C1141.37,765.488 1137.59,759.929 1132.26,759.079C1126.92,758.229 1123.51,758.91 1121.74,760.215C1119.98,761.519 1117.92,763.403 1117.92,764.872C1117.92,766.34 1106.19,764.656 1106.19,764.656C1106.19,764.656 1080.85,763.342 1076.17,766.038C1071.48,768.733 1061.95,772.923 1053.19,774.479C1044.43,776.035 1035.93,778.115 1028.37,778.333C1020.81,778.55 991.667,786.544 969.034,802.949C946.401,819.353 934.665,819.25 918.182,845.134C901.7,871.018 885.886,869.374 875.425,917.62C864.964,965.866 840.529,960.758 831.245,1019.7Z" style="stroke:black;stroke-width:1px;"/>
    </g>
    <g id="Liquid">
        <path d="M460.059,136.476L460.006,119.182C460.006,119.182 459.861,111.723 451.678,111.889C443.496,112.054 444.021,120.124 444.021,120.124L444.575,137.694L443.854,143.126C443.854,143.126 435.691,154.1 442.168,165.721C448.645,177.342 459.371,171.718 462.225,166.625C465.078,161.532 467.119,156.507 464.694,147.314C462.27,138.12 458.639,138.292 460.059,136.476Z"/>
        <path d="M358.544,130.704C358.544,130.704 341.157,125.695 345.132,142.223C349.107,158.751 359.594,149.402 360.789,145.93C361.983,142.458 365.944,137.27 358.544,130.704Z"/>
        <path d="M225.145,132.175C225.145,132.175 216.449,129.124 213.289,132.604C210.129,136.083 211.018,140.866 214.979,144.354C218.941,147.843 227.204,153.64 231.77,148.598C236.336,143.555 229.062,135.467 229.062,135.467C229.062,135.467 227.177,133.131 225.145,132.175Z"/>
        <path d="M170.109,253.202C170.109,253.202 178.824,260.503 173.409,270.358C167.994,280.213 157.61,281.312 155.547,281.091C153.484,280.87 139.482,277.595 134.697,265.228C129.912,252.862 133.523,249.295 135.259,245.847C136.994,242.4 147.233,235.186 155.635,240.981C164.038,246.777 169.103,250.945 170.109,253.202Z"/>
        <path d="M222.326,323.478C222.326,323.478 223.487,307.986 236.955,309.219C250.423,310.452 253.464,320.009 255.305,323.284C257.147,326.559 256.819,342.708 243.658,342.717C230.497,342.725 222.255,333.062 222.326,323.478Z"/>
        <path d="M123.756,428.41C123.756,428.41 132.673,433.883 126.767,442.148C120.862,450.413 112.229,440.164 111.752,438.465C111.275,436.766 107.589,430.004 111.735,426.186C115.881,422.368 123.756,428.41 123.756,428.41Z"/>
        <path d="M170.873,461.294C170.873,461.294 183.758,452.721 196.479,461.829C209.201,470.938 194.375,481.024 190.424,481.426C186.473,481.827 176.135,484.744 166.006,480.131C155.877,475.517 166.257,464.786 170.873,461.294Z"/>
        <path d="M132.314,602.065C132.314,602.065 144.865,590.496 151.999,604.073C159.132,617.651 134.988,621.804 132.314,614.625C129.639,607.447 131.463,602.33 132.314,602.065Z"/>
        <path d="M109.786,645.934C109.786,645.934 118.728,639.133 125.238,645.547C131.748,651.961 130.103,662.511 123.367,664.921C116.63,667.332 111.608,663.267 109.786,661.018C107.964,658.77 104.403,652.162 109.786,645.934Z"/>
        <path d="M442.867,786.811C442.867,786.811 426.792,811.104 428.581,825.656C430.369,840.208 426.718,846.702 418.88,849.297C411.041,851.892 404.011,846.886 403.795,838.745C403.579,830.604 402.615,826.013 418.035,805.63C433.455,785.248 445.122,782.102 442.867,786.811Z"/>
        <path d="M431.065,879.054C431.065,879.054 431.283,866.27 443.146,869.17C455.01,872.07 448.903,888.268 446.015,892.266C443.128,896.264 437.324,899.838 434.219,899.883C431.115,899.927 430.555,882.882 431.065,879.054Z"/>
        <path d="M157.472,847.299C157.472,847.299 132.326,876.071 124.139,878.107C115.952,880.143 105.431,880.396 108.841,863.193C112.251,845.989 137.615,838.213 141.699,836.235C145.783,834.257 165.825,833.005 157.472,847.299Z"/>
        <path d="M333.615,826.089C333.615,826.089 351.595,829.85 346.052,849.986C340.509,870.121 319.657,862.105 314.359,857.051C309.061,851.998 308.376,847.623 308.597,842.507C308.818,837.391 294.596,845.067 290.344,838.997C286.092,832.927 277.463,824.232 287.178,810.692C296.893,797.152 315.504,799.434 320.681,805.506C325.857,811.577 329.112,822.688 327.356,825.373C325.6,828.059 333.615,826.089 333.615,826.089Z"/>
        <path d="M656.757,862.968C656.757,862.968 645.17,875.889 655.378,881.813C665.585,887.737 668.586,878.112 667.024,876.053C665.461,873.994 655.182,866.23 656.757,862.968Z"/>
        <path d="M884.022,873.341C884.022,873.341 866.942,862.733 858.379,879.058C849.816,895.383 860.838,904.205 863.483,906.55C866.127,908.894 885.385,926.412 899.296,910.858C913.207,895.305 884.022,873.341 884.022,873.341Z"/>
        <path d="M812.412,743.812C812.412,743.812 805.072,732.2 797.455,732.107C789.837,732.014 784.997,735.683 785.629,744.838C786.261,753.993 800.622,753.685 804.642,753.619C808.662,753.553 815.002,751.908 812.412,743.812Z"/>
        <path d="M867.436,681.214C867.436,681.214 851.002,672.66 848.526,667.517C846.05,662.375 836.496,651.141 809.975,655.734C783.454,660.327 781.583,662.905 802.079,675.671C822.575,688.436 835.34,689.658 843.888,687.895C852.437,686.133 864.449,695.825 869.902,703.718C875.356,711.612 889.305,711.849 891.845,698.914C894.385,685.978 888.357,684.172 879.115,684.559C869.873,684.946 867.436,681.214 867.436,681.214Z"/>
        <path d="M565.319,149.507C565.319,149.507 552.98,141.299 550.143,154.895C547.305,168.491 552.965,170.503 555.459,170.503C557.953,170.503 578.477,159.614 565.319,149.507Z"/>
        <path d="M598.232,193.024C598.201,193.024 591.596,189.861 586.498,203.591C581.4,217.321 606.84,222.959 611.034,217.992C615.228,213.025 617.219,205.894 613.15,200.46C609.081,195.027 598.263,193.024 598.232,193.024Z"/>
        <path d="M764.876,109.714C764.876,109.714 739.365,96.43 724.503,114.395C709.641,132.36 707.391,151.158 710.967,153.888C714.543,156.619 724.082,158.157 744.473,143.026C764.865,127.896 776.732,114.965 764.876,109.714Z"/>
        <path d="M767.447,268.83C767.447,268.83 775.94,257.101 785.574,268.771C795.207,280.44 776.467,286.856 769.591,287.37C762.716,287.885 756.136,285.3 767.447,268.83Z"/>
        <path d="M732.472,542.72C732.472,542.72 715.954,563.193 744.734,595.069C773.514,626.946 765.149,650.199 755.623,654.654C746.097,659.109 729.839,647.032 729.839,647.032C729.839,647.032 701.904,637.507 704.094,671.745C706.285,705.982 704.562,705.381 694.288,709.222C684.014,713.062 676.543,715.342 685.217,726.299C693.891,737.257 736.519,781.251 761.333,789.778C786.146,798.306 809.115,815.251 810.306,822.978C811.496,830.704 812.372,848.684 788.205,842.13C764.038,835.576 743.914,802.971 727.292,795.084C710.669,787.197 696.215,771.883 684.802,772.755C673.389,773.627 679.155,752.668 679.453,735.649C679.75,718.629 676.027,712.99 676.027,709.222C676.027,705.453 676.447,695.882 678.965,693.423C681.484,690.964 680.198,681.632 685.186,674.961C690.174,668.29 692.955,665.084 692.796,659.498C692.638,653.913 692.067,648.699 695.347,644.062C698.626,639.426 703.613,619.49 703.802,612.76C703.991,606.03 708.744,584.854 712.302,579.571C715.859,574.287 724.168,551.745 726.628,548.582C729.088,545.419 732.75,536.034 732.472,542.72Z"/>
        <path d="M584.001,739.979C584.001,739.979 566.534,790.363 569.687,824.021C572.841,857.679 573.196,864.843 577.267,867.978C581.337,871.114 597.787,875.012 599.802,858.08C601.817,841.147 584.358,842.283 589.453,777.412C594.547,712.541 591.57,717.701 584.001,739.979Z"/>
        <path d="M639.092,242.661C639.092,242.661 656.276,198.061 671.06,189.33C685.844,180.599 696.978,185.891 698.685,194.009C700.392,202.127 697.898,209.344 684.911,216.598C671.924,223.852 658.973,230.807 655.38,236.109C651.787,241.41 635.407,256.277 639.092,242.661Z"/>
        <path d="M485.635,244.838C485.635,244.838 492.603,200.577 490.054,188.189C487.504,175.801 492.148,162.143 506.179,164.25C520.21,166.356 521.27,176.575 519.255,184.83C517.239,193.084 505.224,214.778 505.448,229.636C505.672,244.493 507.964,258.137 497.102,258.484C486.24,258.832 483.506,253.531 485.635,244.838Z"/>
        <path d="M445.031,279.583C445.031,279.583 406.49,269.202 401.695,252.69C396.9,236.179 367.567,248.703 357.725,248.252C347.884,247.802 328.352,238.474 325.662,211.267C322.972,184.059 312.65,164.796 296.562,167.798C280.473,170.8 280.468,182.296 290.748,192.535C301.027,202.775 320.002,238.975 307.126,252.986C294.25,266.997 278.79,276.66 283.558,296.454C288.325,316.249 287.095,352.158 249.72,377.794C212.345,403.429 185.237,380.09 185.237,380.09C185.237,380.09 157.243,368.541 150.253,387.963C143.263,407.385 159.879,418.407 177.489,420.687C195.099,422.966 235.214,440.484 233.804,470.44C232.394,500.397 219.688,505.869 190.214,508.607C160.74,511.346 150.311,510.636 147.53,520.559C144.749,530.481 160.398,532.803 169.219,532.482C178.04,532.162 192.715,533.747 196.696,543.135C200.677,552.523 211.269,551.116 222.054,543.089C232.84,535.062 241.928,542.92 237.744,554.297C233.561,565.673 224.08,574.863 231.521,595.231C238.961,615.598 238.809,611.988 240.163,612.524C241.518,613.06 270.119,580.579 285.952,527.071C301.785,473.562 311.291,441.999 322.685,434.987C334.079,427.975 338.227,399.799 342.2,386.721C346.174,373.642 357.413,349.115 377.031,328.6C396.648,308.086 401.959,289.281 445.031,279.583Z"/>
        <g transform="matrix(1,0,0,1,75.6097,-82.1408)">
            <path d="M900.393,399.368C900.393,399.368 915.52,392.376 918.525,402.975C921.53,413.574 915.385,418.54 889.371,428.869C863.357,439.198 847.204,436.479 847.204,436.479C847.204,436.479 836.478,434.442 853.36,422.914C870.242,411.386 900.393,399.368 900.393,399.368Z"/>
        </g>
        <g transform="matrix(1,0,0,1,127.023,-98.9395)">
            <path d="M810.785,499.352C810.785,499.352 787.02,496.663 793.065,512C799.11,527.337 852.502,510.987 858.031,505.899C863.559,500.811 848.067,501.049 810.785,499.352Z"/>
        </g>
        <g transform="matrix(1,0,0,1,127.023,-98.9395)">
            <path d="M761.333,403.144C761.333,403.144 788.984,405.369 792.08,390.01C795.176,374.651 777.092,372.225 764.852,376.06C752.612,379.894 744.661,390.749 744.661,395.623C744.661,400.496 752.05,404.198 761.333,403.144Z"/>
        </g>
    </g>
</svg>
