<?xml version="1.0" encoding="UTF-8" standalone="no"?>
<!DOCTYPE svg PUBLIC "-//W3C//DTD SVG 1.1//EN" "http://www.w3.org/Graphics/SVG/1.1/DTD/svg11.dtd">
<svg width="100%" height="100%" viewBox="0 0 1004 638" version="1.1" xmlns="http://www.w3.org/2000/svg" xmlns:xlink="http://www.w3.org/1999/xlink" xml:space="preserve" xmlns:serif="http://www.serif.com/" style="fill-rule:evenodd;clip-rule:evenodd;stroke-linejoin:round;stroke-miterlimit:2;">
    <g id="Result-Silver">
        <g id="F">
            <path d="M1003.94,31.719C1003.94,14.213 989.724,0 972.218,0L31.719,0C14.213,0 0,14.213 0,31.719L0,606.076C0,623.583 14.213,637.795 31.719,637.795L972.218,637.795C989.724,637.795 1003.94,623.583 1003.94,606.076L1003.94,31.719ZM695.938,443.898L661.014,443.898L661.014,307.653C661.014,255.284 703.531,212.766 755.901,212.766C773.272,212.766 789.559,217.444 803.572,225.609L792.356,236.825L807.543,252.012L797.65,261.905C802.995,266.787 807.484,272.592 810.862,279.068L822.731,267.199L807.543,252.012L822.731,236.825L837.918,252.012L822.731,267.199L837.918,282.386L845.089,275.215C848.776,285.338 850.788,296.263 850.788,307.653C850.788,360.022 808.27,402.54 755.901,402.54L695.938,402.54L695.938,443.898ZM695.938,367.616L751.686,367.616L751.686,367.468C753.079,367.565 754.484,367.615 755.901,367.615C788.995,367.615 815.862,340.747 815.862,307.653L815.851,306.476L815.818,305.317L815.763,304.169L815.686,303.028L815.589,301.894L815.467,300.735L815.325,299.599L815.177,298.568L815.001,297.476L814.906,296.935C813.884,291.288 812.072,285.914 809.585,280.932L809.388,280.541C806.075,274.022 801.604,268.187 796.246,263.309L795.341,262.502L794.461,261.748L793.587,261.026L792.627,260.265L791.746,259.594L790.893,258.968C790.553,258.723 790.211,258.482 789.865,258.244L788.962,257.633L788.814,257.536C788.312,257.205 787.805,256.882 787.294,256.567L786.518,256.097C786,255.789 785.477,255.488 784.95,255.195L784.152,254.76C783.62,254.475 783.083,254.198 782.542,253.929L781.557,253.45C781.119,253.242 780.678,253.04 780.235,252.842L779.223,252.403L778.892,252.264C778.5,252.101 778.107,251.942 777.71,251.787L776.667,251.39L776.16,251.206L775.106,250.838L774.055,250.493L773.367,250.279L772.275,249.958L771.216,249.668L770.159,249.4L769.034,249.137L767.967,248.908L766.828,248.686L765.739,248.496L764.655,248.327L763.485,248.167L762.387,248.039L761.21,247.924L760.094,247.836L758.981,247.769L757.779,247.72L756.653,247.696L755.901,247.691C753.435,247.691 751.004,247.84 748.615,248.13L748.377,248.16C744.589,248.635 740.911,249.464 737.376,250.612L736.81,250.8L735.994,251.08L734.848,251.497C734.567,251.603 734.286,251.711 734.009,251.82L732.907,252.265L732.63,252.382C711.081,261.475 695.939,282.809 695.939,307.653L695.938,307.653L695.938,367.616ZM831.755,301.531L822.495,310.791L831.755,320.052L841.016,310.791L831.755,301.531ZM858.046,240.942L842.859,256.13L858.046,271.317L873.234,256.13L858.046,240.942ZM784.762,229.231L777.169,236.825L784.762,244.418L792.356,236.825L784.762,229.231ZM862.271,207.236L850.788,218.719L862.271,230.202L873.754,218.719L862.271,207.236ZM826.748,193.898L810.637,210.009L826.748,226.12L842.859,210.009L826.748,193.898Z" style="fill:rgb(207,211,214);"/>
            <g transform="matrix(5.212e-17,0.851185,-0.851185,5.212e-17,215.121,185.323)">
                <g transform="matrix(41.6667,0,0,41.6667,62.5321,175.51)">
                    <path d="M0.115,-0.048L0.115,0.172L0.045,0.172L0.045,-0.535L0.11,-0.535L0.114,-0.438C0.136,-0.474 0.161,-0.501 0.19,-0.52C0.219,-0.538 0.253,-0.547 0.294,-0.547C0.361,-0.547 0.416,-0.521 0.46,-0.469C0.483,-0.443 0.5,-0.414 0.511,-0.382C0.522,-0.349 0.528,-0.313 0.528,-0.273C0.528,-0.19 0.503,-0.122 0.453,-0.068C0.403,-0.014 0.343,0.013 0.274,0.013C0.239,0.013 0.207,0.006 0.178,-0.009C0.169,-0.012 0.16,-0.017 0.15,-0.024C0.14,-0.031 0.128,-0.039 0.115,-0.048ZM0.115,-0.285L0.115,-0.125C0.126,-0.115 0.135,-0.107 0.145,-0.1C0.154,-0.092 0.162,-0.087 0.169,-0.082C0.202,-0.063 0.235,-0.053 0.268,-0.053C0.321,-0.053 0.365,-0.074 0.399,-0.116C0.434,-0.16 0.451,-0.213 0.451,-0.276C0.451,-0.335 0.435,-0.384 0.403,-0.423C0.372,-0.462 0.332,-0.482 0.283,-0.482C0.233,-0.482 0.192,-0.46 0.159,-0.417C0.13,-0.378 0.115,-0.334 0.115,-0.285Z" style="fill:rgb(180,180,180);fill-rule:nonzero;"/>
                </g>
                <g transform="matrix(41.6667,0,0,41.6667,85.6154,175.51)">
                    <path d="M0.04,-0.535L0.112,-0.535L0.112,0L0.04,0L0.04,-0.535ZM0.075,-0.761C0.089,-0.761 0.101,-0.756 0.11,-0.747C0.119,-0.738 0.124,-0.724 0.124,-0.707C0.124,-0.69 0.12,-0.676 0.111,-0.667C0.102,-0.658 0.09,-0.653 0.075,-0.653C0.06,-0.653 0.048,-0.658 0.04,-0.669C0.031,-0.68 0.027,-0.692 0.027,-0.706C0.027,-0.728 0.032,-0.743 0.042,-0.75C0.052,-0.757 0.063,-0.761 0.075,-0.761Z" style="fill:rgb(180,180,180);fill-rule:nonzero;"/>
                </g>
                <g transform="matrix(41.6667,0,0,41.6667,92.2404,175.51)">
                    <path d="M0.482,-0.488L0.482,-0.394C0.445,-0.429 0.406,-0.455 0.367,-0.47C0.356,-0.475 0.344,-0.478 0.332,-0.48C0.32,-0.481 0.308,-0.482 0.296,-0.482C0.241,-0.482 0.195,-0.461 0.16,-0.42C0.125,-0.377 0.107,-0.327 0.107,-0.268C0.107,-0.208 0.125,-0.157 0.162,-0.114C0.199,-0.073 0.245,-0.053 0.3,-0.053C0.335,-0.053 0.366,-0.061 0.395,-0.076C0.424,-0.091 0.453,-0.113 0.482,-0.143L0.482,-0.048C0.447,-0.026 0.415,-0.01 0.386,-0.001C0.357,0.008 0.328,0.013 0.299,0.013C0.224,0.013 0.16,-0.014 0.107,-0.067C0.055,-0.122 0.029,-0.189 0.029,-0.267C0.029,-0.344 0.055,-0.41 0.106,-0.465C0.158,-0.52 0.223,-0.547 0.3,-0.547C0.339,-0.547 0.376,-0.54 0.41,-0.527C0.43,-0.52 0.454,-0.507 0.482,-0.488Z" style="fill:rgb(180,180,180);fill-rule:nonzero;"/>
                </g>
                <g transform="matrix(41.6667,0,0,41.6667,113.865,175.51)">
                    <path d="M0.035,-0.046L0.035,-0.133C0.076,-0.1 0.118,-0.076 0.161,-0.063C0.174,-0.06 0.186,-0.057 0.198,-0.056C0.21,-0.054 0.222,-0.053 0.235,-0.053C0.276,-0.053 0.309,-0.062 0.336,-0.081C0.363,-0.101 0.377,-0.123 0.377,-0.148C0.377,-0.161 0.372,-0.175 0.362,-0.189C0.348,-0.206 0.311,-0.222 0.25,-0.236C0.178,-0.254 0.13,-0.269 0.106,-0.281C0.059,-0.308 0.036,-0.345 0.036,-0.393C0.036,-0.438 0.055,-0.474 0.094,-0.503C0.133,-0.532 0.182,-0.547 0.241,-0.547C0.268,-0.547 0.292,-0.545 0.313,-0.54C0.334,-0.535 0.354,-0.529 0.373,-0.522C0.392,-0.514 0.409,-0.504 0.425,-0.493L0.425,-0.406C0.397,-0.429 0.368,-0.448 0.337,-0.462C0.306,-0.475 0.274,-0.482 0.24,-0.482C0.206,-0.482 0.177,-0.474 0.152,-0.459C0.127,-0.444 0.114,-0.424 0.114,-0.399C0.114,-0.366 0.144,-0.34 0.204,-0.321C0.232,-0.313 0.26,-0.305 0.287,-0.297C0.314,-0.289 0.342,-0.281 0.37,-0.273C0.431,-0.247 0.461,-0.208 0.461,-0.155C0.461,-0.11 0.44,-0.071 0.398,-0.037C0.355,-0.004 0.302,0.013 0.239,0.013C0.211,0.013 0.184,0.01 0.157,0.004C0.114,-0.005 0.074,-0.022 0.035,-0.046Z" style="fill:rgb(180,180,180);fill-rule:nonzero;"/>
                </g>
                <g transform="matrix(41.6667,0,0,41.6667,134.532,175.51)">
                    <path d="M0.515,-0.289L0.108,-0.289C0.108,-0.212 0.126,-0.154 0.162,-0.114C0.197,-0.073 0.244,-0.053 0.302,-0.053C0.346,-0.053 0.388,-0.067 0.429,-0.095C0.44,-0.102 0.452,-0.112 0.465,-0.123C0.478,-0.134 0.491,-0.146 0.506,-0.161L0.506,-0.074C0.49,-0.062 0.475,-0.051 0.462,-0.043C0.448,-0.034 0.435,-0.026 0.423,-0.02C0.381,0.002 0.339,0.013 0.297,0.013C0.224,0.013 0.163,-0.012 0.112,-0.062C0.057,-0.115 0.03,-0.183 0.03,-0.267C0.03,-0.346 0.055,-0.413 0.104,-0.466C0.154,-0.52 0.216,-0.547 0.289,-0.547C0.36,-0.547 0.417,-0.521 0.459,-0.469C0.496,-0.422 0.515,-0.362 0.515,-0.289ZM0.118,-0.35L0.431,-0.35C0.423,-0.395 0.406,-0.429 0.38,-0.452C0.353,-0.474 0.321,-0.485 0.284,-0.485C0.243,-0.485 0.208,-0.472 0.179,-0.446C0.152,-0.422 0.132,-0.39 0.118,-0.35Z" style="fill:rgb(180,180,180);fill-rule:nonzero;"/>
                </g>
                <g transform="matrix(41.6667,0,0,41.6667,157.407,175.51)">
                    <path d="M0.381,-0.535L0.449,-0.535L0.532,-0.283C0.542,-0.25 0.552,-0.217 0.563,-0.182C0.573,-0.147 0.582,-0.114 0.589,-0.084L0.599,-0.115C0.606,-0.14 0.614,-0.166 0.622,-0.192C0.629,-0.218 0.637,-0.245 0.644,-0.273L0.726,-0.535L0.801,-0.535L0.622,0L0.555,0L0.46,-0.296C0.449,-0.328 0.441,-0.353 0.435,-0.372C0.428,-0.39 0.424,-0.402 0.423,-0.409C0.42,-0.42 0.418,-0.43 0.417,-0.438C0.416,-0.446 0.415,-0.453 0.415,-0.46C0.409,-0.442 0.404,-0.426 0.4,-0.412C0.395,-0.398 0.392,-0.386 0.389,-0.376C0.38,-0.346 0.374,-0.322 0.369,-0.304C0.364,-0.286 0.361,-0.274 0.36,-0.268L0.275,0L0.207,0L0.029,-0.535L0.107,-0.535L0.249,-0.084C0.252,-0.103 0.256,-0.122 0.26,-0.139C0.264,-0.156 0.268,-0.172 0.273,-0.188C0.276,-0.199 0.28,-0.211 0.283,-0.223C0.286,-0.235 0.29,-0.247 0.295,-0.26L0.381,-0.535Z" style="fill:rgb(180,180,180);fill-rule:nonzero;"/>
                </g>
                <g transform="matrix(41.6667,0,0,41.6667,192.199,175.51)">
                    <path d="M0.143,0.003C0.127,0.003 0.113,-0.004 0.102,-0.017C0.091,-0.03 0.085,-0.047 0.085,-0.066C0.085,-0.086 0.091,-0.103 0.103,-0.117C0.114,-0.13 0.128,-0.137 0.143,-0.137C0.158,-0.137 0.171,-0.131 0.183,-0.119C0.194,-0.106 0.2,-0.089 0.2,-0.068C0.2,-0.048 0.194,-0.031 0.183,-0.018C0.172,-0.004 0.158,0.003 0.143,0.003Z" style="fill:rgb(180,180,180);fill-rule:nonzero;"/>
                </g>
                <g transform="matrix(41.6667,0,0,41.6667,206.574,175.51)">
                    <path d="M0.482,-0.488L0.482,-0.394C0.445,-0.429 0.406,-0.455 0.367,-0.47C0.356,-0.475 0.344,-0.478 0.332,-0.48C0.32,-0.481 0.308,-0.482 0.296,-0.482C0.241,-0.482 0.195,-0.461 0.16,-0.42C0.125,-0.377 0.107,-0.327 0.107,-0.268C0.107,-0.208 0.125,-0.157 0.162,-0.114C0.199,-0.073 0.245,-0.053 0.3,-0.053C0.335,-0.053 0.366,-0.061 0.395,-0.076C0.424,-0.091 0.453,-0.113 0.482,-0.143L0.482,-0.048C0.447,-0.026 0.415,-0.01 0.386,-0.001C0.357,0.008 0.328,0.013 0.299,0.013C0.224,0.013 0.16,-0.014 0.107,-0.067C0.055,-0.122 0.029,-0.189 0.029,-0.267C0.029,-0.344 0.055,-0.41 0.106,-0.465C0.158,-0.52 0.223,-0.547 0.3,-0.547C0.339,-0.547 0.376,-0.54 0.41,-0.527C0.43,-0.52 0.454,-0.507 0.482,-0.488Z" style="fill:rgb(180,180,180);fill-rule:nonzero;"/>
                </g>
                <g transform="matrix(41.6667,0,0,41.6667,228.199,175.51)">
                    <path d="M0.51,-0.358L0.51,0L0.438,0L0.438,-0.353C0.438,-0.39 0.424,-0.421 0.397,-0.445C0.37,-0.47 0.337,-0.482 0.299,-0.482C0.248,-0.482 0.205,-0.461 0.168,-0.419C0.131,-0.376 0.113,-0.328 0.113,-0.275L0.113,0L0.045,0L0.045,-0.535L0.108,-0.535L0.111,-0.435C0.129,-0.462 0.15,-0.485 0.174,-0.503C0.213,-0.532 0.258,-0.547 0.307,-0.547C0.364,-0.547 0.412,-0.53 0.451,-0.495C0.49,-0.461 0.51,-0.415 0.51,-0.358Z" style="fill:rgb(180,180,180);fill-rule:nonzero;"/>
                </g>
            </g>
        </g>
    </g>
</svg>
