<?xml version="1.0" encoding="UTF-8" standalone="no"?>
<!DOCTYPE svg PUBLIC "-//W3C//DTD SVG 1.1//EN" "http://www.w3.org/Graphics/SVG/1.1/DTD/svg11.dtd">
<svg width="100%" height="100%" viewBox="0 0 443 220" version="1.1" xmlns="http://www.w3.org/2000/svg" xmlns:xlink="http://www.w3.org/1999/xlink" xml:space="preserve" xmlns:serif="http://www.serif.com/" style="fill-rule:evenodd;clip-rule:evenodd;stroke-linejoin:round;stroke-miterlimit:2;">
    <g transform="matrix(1,0,0,1,84.6,0)">
        <g>
            <g>
                <g>
                    <g>
                        <path d="M151.5,18.3C150.4,18.3 149.4,17.6 149.2,16.5L148.5,13.8C148.2,12.5 148.9,11.2 150.2,10.8C151.5,10.5 152.8,11.2 153.2,12.5L153.9,15.2C154.2,16.5 153.5,17.8 152.2,18.2C151.9,18.3 151.7,18.3 151.5,18.3Z" style="fill:rgb(169,222,231);fill-rule:nonzero;"/>
                    </g>
                </g>
                <g>
                    <g>
                        <path d="M159.4,48C158.3,48 157.3,47.3 157.1,46.2L151.5,25.3C151.2,24 151.9,22.7 153.2,22.3C154.5,22 155.8,22.7 156.2,24L161.8,44.9C162.1,46.2 161.4,47.5 160.1,47.9C159.8,47.9 159.6,48 159.4,48Z" style="fill:rgb(169,222,231);fill-rule:nonzero;"/>
                    </g>
                </g>
                <g>
                    <g>
                        <path d="M238.4,112.4C238.2,112.4 238,112.4 237.8,112.3L217.9,107C216.6,106.7 215.8,105.3 216.2,104C216.5,102.7 217.9,101.9 219.2,102.3L239.1,107.6C240.4,107.9 241.2,109.3 240.8,110.6C240.5,111.7 239.5,112.4 238.4,112.4Z" style="fill:rgb(169,222,231);fill-rule:nonzero;"/>
                    </g>
                </g>
                <g>
                    <g>
                        <path d="M218.5,82.1C217.4,82.1 216.4,81.4 216.2,80.3C215.9,79 216.6,77.7 217.9,77.3L221,76.5C222.3,76.2 223.6,76.9 224,78.2C224.3,79.5 223.6,80.8 222.3,81.2L219.2,82C219,82.1 218.7,82.1 218.5,82.1Z" style="fill:rgb(51,51,51);fill-rule:nonzero;"/>
                    </g>
                </g>
                <g>
                    <g>
                        <path d="M231.4,78.7C230.3,78.7 229.3,78 229.1,76.9C228.8,75.6 229.5,74.3 230.8,73.9L250.3,68.7C251.6,68.4 252.9,69.1 253.3,70.4C253.6,71.7 252.9,73 251.6,73.4L232,78.6C231.8,78.6 231.6,78.7 231.4,78.7Z" style="fill:rgb(51,51,51);fill-rule:nonzero;"/>
                    </g>
                </g>
                <g>
                    <g>
                        <path d="M206,60.5C205.4,60.5 204.8,60.3 204.3,59.8C203.4,58.9 203.4,57.3 204.3,56.4L216.8,43.9C217.7,43 219.3,43 220.2,43.9C221.1,44.8 221.1,46.4 220.2,47.3L207.7,59.8C207.3,60.2 206.7,60.5 206,60.5Z" style="fill:rgb(169,222,231);fill-rule:nonzero;"/>
                    </g>
                </g>
                <g>
                    <g>
                        <path d="M184.4,48C184.2,48 184,48 183.8,47.9C182.5,47.6 181.7,46.2 182.1,44.9L193.6,1.8C193.9,0.5 195.3,-0.3 196.6,0.1C197.9,0.4 198.7,1.8 198.3,3.1L186.8,46.2C186.5,47.2 185.5,48 184.4,48Z" style="fill:rgb(51,51,51);fill-rule:nonzero;"/>
                    </g>
                </g>
            </g>
            <g>
                <g>
                    <path d="M93.9,92.2L104.8,92.1L93.9,92.2Z" style="fill:rgb(51,51,51);fill-rule:nonzero;"/>
                </g>
                <g>
                    <path d="M99.4,97.6L93.9,97.6L93.9,92.2L99.3,92.2L99.3,86.7L104.8,86.7L104.8,92.2L99.4,92.2L99.4,97.6Z" style="fill:rgb(51,51,51);fill-rule:nonzero;"/>
                </g>
                <g>
                    <path d="M99.4,97.6L93.9,97.6L93.9,92.2L99.3,92.1L99.3,86.7L104.8,86.7L104.8,92.2L99.4,92.2L99.4,97.6Z" style="fill:rgb(51,51,51);fill-rule:nonzero;"/>
                </g>
                <g>
                    <path d="M99.4,97.6L93.9,97.6L93.9,92.2L99.3,92.1L99.3,86.7L104.8,86.7L104.8,92.2L99.4,92.2L99.4,97.6Z" style="fill:rgb(51,51,51);fill-rule:nonzero;"/>
                </g>
                <g>
                    <g>
                        <path d="M104.8,92.1L104.8,97.6L100.4,97.6L89.3,102.2L76.2,107.6L57.3,115.4C56.5,114 55.8,112.6 55.2,111.1L54.6,109.7C54,108.3 53.5,106.8 53.1,105.3L93.9,88.4L93.9,86.6L99.3,86.6L99.3,92.1L104.8,92.1Z" style="fill:rgb(51,51,51);fill-rule:nonzero;"/>
                    </g>
                </g>
                <g>
                    <path d="M99.3,97.6L99.3,92.2L93.9,92.2L93.9,86.7L99.4,86.7L99.4,92.2L104.8,92.2L104.8,97.6L99.3,97.6Z" style="fill:rgb(51,51,51);fill-rule:nonzero;"/>
                </g>
                <g>
                    <g>
                        <path d="M104.8,92.1L104.8,97.6L101.6,97.6L69.4,129.8C68,128.7 66.6,127.5 65.3,126.2C64,124.9 62.8,123.6 61.7,122.1L93.9,89.9L93.9,86.7L99.3,86.7L99.3,92.1L104.8,92.1Z" style="fill:rgb(51,51,51);fill-rule:nonzero;"/>
                    </g>
                </g>
                <g>
                    <path d="M99.4,97.6L99.3,92.2L93.9,92.2L93.9,86.7L99.4,86.7L99.4,92.2L104.8,92.2L104.8,97.6L99.4,97.6Z" style="fill:rgb(51,51,51);fill-rule:nonzero;"/>
                </g>
                <g>
                    <path d="M99.4,97.6L99.3,92.2L93.9,92.2L93.9,86.7L99.3,86.7L99.4,92.2L104.8,92.2L104.8,97.6L99.4,97.6Z" style="fill:rgb(51,51,51);fill-rule:nonzero;"/>
                </g>
                <g>
                    <g>
                        <path d="M104.8,92.2L104.8,97.6L103,97.6L86.1,138.4C84.5,138 83,137.4 81.5,136.8L80.9,136.5L80.6,136.4C79,135.7 77.5,135 76.1,134.2L83.9,115.3L89.3,102.2L93.9,91.1L93.9,86.7L99.3,86.7L99.3,92.1L104.8,92.2Z" style="fill:rgb(51,51,51);fill-rule:nonzero;"/>
                    </g>
                </g>
                <g>
                    <path d="M99.4,97.6L99.3,92.2L93.9,92.2L93.9,86.7L99.3,86.7L99.4,92.2L104.8,92.1L104.8,97.6L99.4,97.6Z" style="fill:rgb(51,51,51);fill-rule:nonzero;"/>
                </g>
                <g>
                    <path d="M99.4,97.6L99.3,92.2L93.9,92.2L93.9,86.7L99.3,86.7L99.4,92.2L104.8,92.1L104.8,97.6L99.4,97.6Z" style="fill:rgb(51,51,51);fill-rule:nonzero;"/>
                </g>
            </g>
            <g>
                <circle cx="99.4" cy="92.2" r="27.1" style="fill:rgb(241,93,52);"/>
            </g>
            <g>
                <path d="M99.4,129.3C78.9,129.3 62.2,112.6 62.2,92.1C62.2,71.6 78.9,55 99.4,55C119.9,55 136.6,71.7 136.6,92.2C136.6,112.7 119.9,129.3 99.4,129.3ZM99.4,65.1C84.5,65.1 72.3,77.2 72.3,92.2C72.3,107.2 84.4,119.3 99.4,119.3C114.4,119.3 126.5,107.2 126.5,92.2C126.5,77.2 114.3,65.1 99.4,65.1Z" style="fill:rgb(51,51,51);fill-rule:nonzero;"/>
            </g>
            <g>
                <circle cx="99.4" cy="92.2" r="9.5" style="fill:rgb(51,51,51);"/>
            </g>
            <g>
                <path d="M99.4,98.2C96.1,98.2 93.4,95.5 93.4,92.2C93.4,88.9 96.1,86.2 99.4,86.2C102.7,86.2 105.4,88.9 105.4,92.2C105.4,95.5 102.7,98.2 99.4,98.2ZM99.4,87.3C96.7,87.3 94.6,89.5 94.6,92.1C94.6,94.7 96.8,96.9 99.4,96.9C102,96.9 104.2,94.7 104.2,92.1C104.2,89.5 102,87.3 99.4,87.3Z" style="fill:white;fill-rule:nonzero;"/>
            </g>
            <g>
                <circle cx="103.8" cy="86.8" r="4.2" style="fill:white;"/>
            </g>
            <g transform="matrix(0.7071,-0.7071,0.7071,0.7071,-8.4235,95.6273)">
                <rect x="106.2" y="19.8" width="10.1" height="76.4" style="fill:rgb(51,51,51);"/>
            </g>
            <g>
                <path d="M95.2,41.9L96.1,24C96.3,20.9 94.5,18 91.6,16.8L56.1,1.1C55,0.6 53.9,1.7 54.4,2.8L70,38.4C71.3,41.2 74.1,43 77.2,42.9L95.2,41.9" style="fill:rgb(51,51,51);fill-rule:nonzero;"/>
            </g>
            <g>
                <path d="M152.4,117.7C152.4,117.7 152.8,123 150.1,129.2C147.9,134.3 143.6,139.9 135.4,143.5C117.2,135.5 118.4,117.7 118.4,117.7C118.4,117.7 117.4,107.5 125.2,99.1C130.7,93.1 140.2,93.1 145.6,99.1C153.4,107.5 152.4,117.7 152.4,117.7Z" style="fill:white;fill-rule:nonzero;"/>
                <path d="M149.4,95.7C147.6,93.8 145.4,92.2 143.1,91.2C140.7,90.2 138.1,89.6 135.5,89.6C130.2,89.6 125.1,91.8 121.6,95.7C113.3,104.8 113.4,115.5 113.5,117.8C113.5,119.2 113.5,123.9 115.5,129.4C117.6,135.3 122.5,143.4 133.5,148.2C134.1,148.5 134.8,148.6 135.5,148.6C136.2,148.6 136.9,148.5 137.5,148.2C145.5,144.7 151.5,138.8 154.8,131.3C157.5,125 157.6,119.4 157.5,117.8C157.6,115.5 157.7,104.7 149.4,95.7ZM147.4,117.3L147.4,119.6C147.3,121.3 146.9,124.1 145.5,127.3C143.5,131.9 140.1,135.5 135.4,138C125.3,132.5 123.7,123.2 123.5,119.6C123.4,118.8 123.5,118.2 123.5,118.1L123.5,117.3C123.5,117 122.9,109.1 129,102.5C130.7,100.7 133,99.6 135.5,99.6C138,99.6 140.3,100.6 142,102.5C147.9,109 147.4,116.9 147.4,117.3Z" style="fill:rgb(51,51,51);fill-rule:nonzero;"/>
                <path d="M147.4,117.3L147.4,119.6C147.2,116.7 146.1,111.6 142,107C140.3,105.2 138,104.1 135.5,104.1C133,104.1 130.7,105.1 129,107C124.8,111.6 123.8,116.7 123.6,119.6C123.5,118.8 123.6,118.2 123.6,118.1L123.6,117.3C123.6,117 123,109.1 129.1,102.5C130.8,100.7 133.1,99.6 135.6,99.6C138.1,99.6 140.4,100.6 142.1,102.5C147.9,109 147.4,116.9 147.4,117.3Z" style="fill:rgb(51,51,51);fill-opacity:0.25;fill-rule:nonzero;"/>
            </g>
            <g>
                <g>
                    <path d="M165.6,113.2C161.4,111.9 157.8,109.5 155,106.2L139.6,119.2C146.2,127.1 155.6,132.5 166.3,133.9L165.6,113.2Z" style="fill:white;fill-rule:nonzero;"/>
                </g>
            </g>
            <g>
                <circle cx="171.9" cy="92.2" r="27.1" style="fill:rgb(169,222,231);"/>
            </g>
            <g>
                <g>
                    <path d="M171.9,55C153.8,55 138.7,68 135.4,85.1C135,87.4 134.7,89.7 134.7,92.2C134.7,102.6 139,112 145.8,118.7C152.5,125.3 161.7,129.4 171.8,129.4C192.3,129.4 209,112.7 209,92.2C209.1,71.7 192.4,55 171.9,55ZM186.9,114.7C182.6,117.6 177.5,119.2 172,119.2C171.3,119.2 170.5,119.2 169.8,119.1C155.9,118 144.9,106.3 144.9,92.1C144.9,77.9 155.9,66.2 169.8,65.1C170.4,65 171,65 171.5,65L172,65C186.9,65 199.1,77.1 199.1,92.1C199,101.6 194.2,109.9 186.9,114.7Z" style="fill:rgb(51,51,51);fill-rule:nonzero;"/>
                    <path d="M171.9,65.1L171.4,65.1C170.8,65.1 170.2,65.1 169.7,65.2C155.8,66.3 144.8,78 144.8,92.2C144.8,106.4 155.8,118.1 169.7,119.2C170.4,119.3 171.2,119.3 171.9,119.3C177.4,119.3 182.6,117.6 186.8,114.8C194.1,109.9 198.9,101.6 198.9,92.2C199,77.2 186.8,65.1 171.9,65.1ZM171.9,114.9C159.3,114.9 149.1,104.7 149.1,92.1C149.1,79.5 159.3,69.3 171.9,69.3C184.5,69.3 194.6,79.5 194.6,92.1C194.7,104.7 184.5,114.9 171.9,114.9Z" style="fill:rgb(51,51,51);fill-opacity:0.2;fill-rule:nonzero;"/>
                </g>
            </g>
            <g opacity="0.2">
                <circle cx="171.5" cy="92.2" r="9.5" style="fill:rgb(51,51,51);"/>
            </g>
            <g>
                <path d="M218.4,148.4L191.1,118.6C189.3,116.6 189.2,113.4 191.1,111.5C193,109.5 196.1,109.5 198.1,111.3L227.9,138.5C230.9,141.3 230,144.8 227,147.6C224.4,150 221.5,151.2 218.8,148.8C218.7,148.7 218.6,148.6 218.4,148.4Z" style="fill:rgb(51,51,51);fill-rule:nonzero;"/>
            </g>
            <path d="M126.4,91.8C124.6,92.8 122.9,94.1 121.4,95.7C121.1,96 120.8,96.3 120.6,96.7C120.8,95.2 121,93.8 121,92.2C121,78.2 110.3,66.6 96.6,65.2C97.5,65.1 98.4,65.1 99.3,65.1C114.2,65.1 126.2,77 126.4,91.8Z" style="fill:white;fill-opacity:0.1;fill-rule:nonzero;"/>
            <g>
                <path d="M176.2,71L176,71C174.7,70.7 173.3,70.6 171.9,70.6C171.2,70.6 170.7,70.1 170.7,69.4C170.7,68.7 171.2,68.2 171.9,68.2C173.4,68.2 175,68.3 176.4,68.6C177.1,68.7 177.5,69.4 177.4,70C177.3,70.5 176.8,71 176.2,71Z" style="fill:white;fill-rule:nonzero;"/>
            </g>
            <g>
                <path d="M194.7,93.4C194,93.4 193.5,92.9 193.5,92.2C193.5,87.8 192.2,83.5 189.6,79.9C187.6,77.1 185,74.7 182,73.1C181.4,72.8 181.2,72.1 181.5,71.5C181.8,70.9 182.5,70.7 183.1,71C186.5,72.8 189.4,75.4 191.6,78.5C194.4,82.5 195.9,87.3 195.9,92.2C196,92.8 195.4,93.4 194.7,93.4Z" style="fill:white;fill-rule:nonzero;"/>
            </g>
            <g>
                <circle cx="176" cy="86.8" r="4.2" style="fill:white;"/>
            </g>
        </g>
        <g transform="matrix(1.17859,0,0,1.17859,-326.859,-249.127)">
            <g transform="matrix(62.8362,0,0,62.8362,203.35,397.286)">
                <path d="M0.502,-0.199C0.502,-0.17 0.496,-0.142 0.485,-0.117C0.473,-0.091 0.456,-0.069 0.434,-0.05C0.412,-0.031 0.385,-0.016 0.354,-0.005C0.323,0.007 0.287,0.012 0.247,0.012C0.21,0.012 0.174,0.008 0.137,0C0.1,-0.008 0.066,-0.02 0.035,-0.035L0.068,-0.16C0.091,-0.149 0.118,-0.139 0.147,-0.131C0.176,-0.122 0.208,-0.118 0.242,-0.118C0.27,-0.118 0.293,-0.123 0.311,-0.134C0.329,-0.144 0.338,-0.161 0.338,-0.184C0.338,-0.201 0.33,-0.216 0.315,-0.23C0.299,-0.243 0.27,-0.258 0.229,-0.273C0.164,-0.298 0.116,-0.326 0.086,-0.358C0.056,-0.389 0.041,-0.43 0.041,-0.479C0.041,-0.544 0.062,-0.593 0.105,-0.627C0.147,-0.661 0.205,-0.678 0.28,-0.678C0.318,-0.678 0.354,-0.674 0.389,-0.666C0.424,-0.657 0.453,-0.646 0.477,-0.633L0.449,-0.51C0.426,-0.521 0.4,-0.531 0.373,-0.538C0.345,-0.545 0.316,-0.548 0.287,-0.548C0.262,-0.548 0.243,-0.544 0.228,-0.536C0.213,-0.527 0.205,-0.513 0.205,-0.493C0.205,-0.484 0.206,-0.476 0.209,-0.469C0.212,-0.462 0.217,-0.456 0.224,-0.45C0.231,-0.444 0.24,-0.438 0.253,-0.432C0.266,-0.426 0.282,-0.419 0.301,-0.411C0.329,-0.4 0.355,-0.388 0.38,-0.375C0.405,-0.362 0.426,-0.348 0.444,-0.331C0.462,-0.314 0.476,-0.295 0.487,-0.274C0.497,-0.253 0.502,-0.228 0.502,-0.199Z" style="fill:rgb(241,93,52);fill-rule:nonzero;"/>
            </g>
            <g transform="matrix(62.8362,0,0,62.8362,236.653,397.286)">
                <path d="M0.277,-0.5C0.341,-0.5 0.392,-0.481 0.429,-0.444C0.466,-0.406 0.485,-0.354 0.485,-0.287C0.485,-0.262 0.482,-0.235 0.476,-0.206L0.192,-0.206C0.193,-0.176 0.204,-0.152 0.223,-0.134C0.242,-0.115 0.271,-0.106 0.31,-0.106C0.334,-0.106 0.359,-0.108 0.386,-0.113C0.412,-0.117 0.435,-0.123 0.454,-0.132L0.474,-0.029C0.449,-0.016 0.42,-0.007 0.389,0C0.357,0.007 0.324,0.01 0.29,0.01C0.247,0.01 0.21,0.004 0.177,-0.009C0.144,-0.021 0.117,-0.038 0.095,-0.06C0.073,-0.082 0.056,-0.108 0.045,-0.139C0.034,-0.17 0.028,-0.204 0.028,-0.241C0.028,-0.281 0.034,-0.317 0.046,-0.349C0.057,-0.381 0.074,-0.408 0.096,-0.431C0.117,-0.453 0.143,-0.47 0.174,-0.482C0.205,-0.494 0.239,-0.5 0.277,-0.5ZM0.272,-0.398C0.247,-0.398 0.227,-0.39 0.214,-0.374C0.2,-0.357 0.193,-0.335 0.193,-0.306L0.335,-0.306C0.336,-0.311 0.337,-0.317 0.337,-0.323C0.337,-0.344 0.331,-0.362 0.32,-0.377C0.309,-0.391 0.293,-0.398 0.272,-0.398Z" style="fill:rgb(241,93,52);fill-rule:nonzero;"/>
            </g>
            <g transform="matrix(62.8362,0,0,62.8362,269.077,397.286)">
                <path d="M0.328,-0.048C0.313,-0.033 0.292,-0.019 0.266,-0.008C0.239,0.004 0.21,0.01 0.179,0.01C0.157,0.01 0.137,0.006 0.12,-0.001C0.103,-0.008 0.088,-0.018 0.077,-0.031C0.065,-0.044 0.056,-0.058 0.05,-0.076C0.043,-0.093 0.04,-0.111 0.04,-0.13C0.04,-0.175 0.054,-0.21 0.083,-0.233C0.111,-0.256 0.151,-0.269 0.203,-0.273C0.222,-0.274 0.243,-0.275 0.265,-0.276C0.286,-0.277 0.305,-0.277 0.322,-0.278L0.322,-0.294C0.322,-0.347 0.292,-0.374 0.233,-0.374C0.21,-0.374 0.187,-0.371 0.166,-0.366C0.144,-0.361 0.124,-0.353 0.106,-0.344L0.077,-0.455C0.1,-0.468 0.128,-0.479 0.16,-0.488C0.191,-0.496 0.226,-0.5 0.263,-0.5C0.332,-0.5 0.385,-0.482 0.424,-0.447C0.463,-0.411 0.482,-0.357 0.482,-0.286L0.482,0L0.328,0L0.328,-0.048ZM0.241,-0.095C0.256,-0.095 0.271,-0.097 0.285,-0.101C0.298,-0.105 0.311,-0.11 0.322,-0.117L0.322,-0.19C0.306,-0.189 0.292,-0.187 0.279,-0.186C0.266,-0.184 0.254,-0.182 0.242,-0.181C0.209,-0.177 0.193,-0.162 0.193,-0.135C0.193,-0.123 0.197,-0.113 0.206,-0.106C0.214,-0.099 0.226,-0.095 0.241,-0.095Z" style="fill:rgb(241,93,52);fill-rule:nonzero;"/>
            </g>
            <g transform="matrix(62.8362,0,0,62.8362,302.694,397.286)">
                <path d="M0.373,-0.352L0.354,-0.352C0.291,-0.352 0.246,-0.336 0.22,-0.304L0.22,0L0.06,0L0.06,-0.49L0.215,-0.49L0.215,-0.408C0.224,-0.435 0.239,-0.456 0.258,-0.471C0.277,-0.486 0.303,-0.494 0.334,-0.494C0.343,-0.494 0.351,-0.494 0.358,-0.493C0.364,-0.492 0.37,-0.49 0.377,-0.488L0.373,-0.352Z" style="fill:rgb(241,93,52);fill-rule:nonzero;"/>
            </g>
            <g transform="matrix(62.8362,0,0,62.8362,326.509,397.286)">
                <path d="M0.291,-0.5C0.316,-0.5 0.341,-0.497 0.366,-0.492C0.39,-0.487 0.411,-0.479 0.429,-0.47L0.413,-0.356C0.4,-0.361 0.385,-0.366 0.368,-0.37C0.35,-0.374 0.332,-0.376 0.314,-0.376C0.271,-0.376 0.239,-0.364 0.218,-0.341C0.197,-0.318 0.186,-0.286 0.186,-0.245C0.186,-0.204 0.197,-0.172 0.218,-0.149C0.239,-0.126 0.271,-0.114 0.314,-0.114C0.332,-0.114 0.35,-0.116 0.368,-0.12C0.385,-0.124 0.4,-0.129 0.413,-0.134L0.429,-0.02C0.411,-0.011 0.39,-0.003 0.366,0.002C0.341,0.007 0.316,0.01 0.291,0.01C0.25,0.01 0.213,0.004 0.18,-0.009C0.147,-0.021 0.119,-0.038 0.096,-0.061C0.073,-0.083 0.056,-0.11 0.044,-0.141C0.032,-0.172 0.026,-0.207 0.026,-0.245C0.026,-0.283 0.032,-0.318 0.044,-0.349C0.056,-0.38 0.073,-0.407 0.096,-0.43C0.119,-0.452 0.147,-0.469 0.18,-0.482C0.213,-0.494 0.25,-0.5 0.291,-0.5Z" style="fill:rgb(241,93,52);fill-rule:nonzero;"/>
            </g>
            <g transform="matrix(62.8362,0,0,62.8362,355.037,397.286)">
                <path d="M0.06,0L0.06,-0.706L0.22,-0.706L0.22,-0.432C0.235,-0.455 0.254,-0.472 0.277,-0.484C0.3,-0.495 0.325,-0.5 0.351,-0.5C0.384,-0.5 0.411,-0.493 0.434,-0.48C0.457,-0.466 0.475,-0.448 0.49,-0.425C0.504,-0.402 0.514,-0.376 0.521,-0.347C0.527,-0.317 0.53,-0.286 0.53,-0.253L0.53,0L0.37,0L0.37,-0.256C0.37,-0.297 0.364,-0.327 0.351,-0.346C0.338,-0.365 0.319,-0.374 0.293,-0.374C0.276,-0.374 0.262,-0.37 0.25,-0.363C0.237,-0.356 0.227,-0.347 0.22,-0.336L0.22,0L0.06,0Z" style="fill:rgb(241,93,52);fill-rule:nonzero;"/>
            </g>
            <g transform="matrix(62.8362,0,0,62.8362,391.67,397.286)">
                <path d="M0.392,-0.678C0.427,-0.678 0.462,-0.675 0.497,-0.668C0.532,-0.661 0.562,-0.652 0.587,-0.639L0.563,-0.518C0.543,-0.526 0.52,-0.533 0.495,-0.539C0.469,-0.544 0.443,-0.547 0.418,-0.547C0.35,-0.547 0.296,-0.529 0.257,-0.494C0.218,-0.459 0.198,-0.405 0.198,-0.333C0.198,-0.261 0.218,-0.207 0.257,-0.172C0.296,-0.137 0.35,-0.119 0.418,-0.119C0.443,-0.119 0.469,-0.122 0.495,-0.128C0.52,-0.133 0.543,-0.14 0.563,-0.148L0.587,-0.027C0.562,-0.014 0.532,-0.005 0.497,0.002C0.462,0.009 0.427,0.012 0.392,0.012C0.333,0.012 0.282,0.003 0.237,-0.014C0.192,-0.031 0.155,-0.055 0.125,-0.086C0.095,-0.117 0.072,-0.153 0.057,-0.195C0.042,-0.237 0.034,-0.283 0.034,-0.333C0.034,-0.383 0.042,-0.429 0.057,-0.471C0.072,-0.513 0.095,-0.549 0.125,-0.58C0.155,-0.611 0.192,-0.635 0.237,-0.652C0.282,-0.669 0.333,-0.678 0.392,-0.678Z" style="fill-rule:nonzero;"/>
            </g>
            <g transform="matrix(62.8362,0,0,62.8362,430.754,397.286)">
                <path d="M0.277,-0.5C0.341,-0.5 0.392,-0.481 0.429,-0.444C0.466,-0.406 0.485,-0.354 0.485,-0.287C0.485,-0.262 0.482,-0.235 0.476,-0.206L0.192,-0.206C0.193,-0.176 0.204,-0.152 0.223,-0.134C0.242,-0.115 0.271,-0.106 0.31,-0.106C0.334,-0.106 0.359,-0.108 0.386,-0.113C0.412,-0.117 0.435,-0.123 0.454,-0.132L0.474,-0.029C0.449,-0.016 0.42,-0.007 0.389,0C0.357,0.007 0.324,0.01 0.29,0.01C0.247,0.01 0.21,0.004 0.177,-0.009C0.144,-0.021 0.117,-0.038 0.095,-0.06C0.073,-0.082 0.056,-0.108 0.045,-0.139C0.034,-0.17 0.028,-0.204 0.028,-0.241C0.028,-0.281 0.034,-0.317 0.046,-0.349C0.057,-0.381 0.074,-0.408 0.096,-0.431C0.117,-0.453 0.143,-0.47 0.174,-0.482C0.205,-0.494 0.239,-0.5 0.277,-0.5ZM0.272,-0.398C0.247,-0.398 0.227,-0.39 0.214,-0.374C0.2,-0.357 0.193,-0.335 0.193,-0.306L0.335,-0.306C0.336,-0.311 0.337,-0.317 0.337,-0.323C0.337,-0.344 0.331,-0.362 0.32,-0.377C0.309,-0.391 0.293,-0.398 0.272,-0.398Z" style="fill-rule:nonzero;"/>
            </g>
            <g transform="matrix(62.8362,0,0,62.8362,463.178,397.286)">
                <path d="M0.06,0L0.06,-0.49L0.214,-0.49L0.214,-0.426C0.229,-0.453 0.249,-0.472 0.274,-0.483C0.298,-0.494 0.324,-0.5 0.351,-0.5C0.384,-0.5 0.411,-0.493 0.434,-0.48C0.457,-0.466 0.475,-0.448 0.49,-0.425C0.504,-0.402 0.514,-0.376 0.521,-0.347C0.527,-0.317 0.53,-0.286 0.53,-0.253L0.53,0L0.37,0L0.37,-0.256C0.37,-0.297 0.364,-0.327 0.351,-0.346C0.338,-0.365 0.319,-0.374 0.293,-0.374C0.276,-0.374 0.262,-0.37 0.25,-0.363C0.237,-0.356 0.227,-0.347 0.22,-0.336L0.22,0L0.06,0Z" style="fill-rule:nonzero;"/>
            </g>
            <g transform="matrix(62.8362,0,0,62.8362,499.623,397.286)">
                <path d="M0.008,-0.49L0.083,-0.49L0.083,-0.618L0.243,-0.618L0.243,-0.49L0.384,-0.49L0.384,-0.368L0.243,-0.368L0.243,-0.176C0.243,-0.157 0.247,-0.141 0.256,-0.131C0.264,-0.12 0.279,-0.114 0.301,-0.114C0.313,-0.114 0.325,-0.115 0.338,-0.117C0.35,-0.118 0.362,-0.121 0.373,-0.124L0.384,-0.013C0.368,-0.006 0.348,0 0.325,0.004C0.302,0.008 0.278,0.01 0.255,0.01C0.224,0.01 0.197,0.005 0.176,-0.005C0.154,-0.014 0.136,-0.027 0.123,-0.044C0.109,-0.06 0.099,-0.079 0.093,-0.102C0.086,-0.124 0.083,-0.148 0.083,-0.173L0.083,-0.368L0.008,-0.368L0.008,-0.49Z" style="fill-rule:nonzero;"/>
            </g>
            <g transform="matrix(62.8362,0,0,62.8362,525.009,397.286)">
                <path d="M0.277,-0.5C0.341,-0.5 0.392,-0.481 0.429,-0.444C0.466,-0.406 0.485,-0.354 0.485,-0.287C0.485,-0.262 0.482,-0.235 0.476,-0.206L0.192,-0.206C0.193,-0.176 0.204,-0.152 0.223,-0.134C0.242,-0.115 0.271,-0.106 0.31,-0.106C0.334,-0.106 0.359,-0.108 0.386,-0.113C0.412,-0.117 0.435,-0.123 0.454,-0.132L0.474,-0.029C0.449,-0.016 0.42,-0.007 0.389,0C0.357,0.007 0.324,0.01 0.29,0.01C0.247,0.01 0.21,0.004 0.177,-0.009C0.144,-0.021 0.117,-0.038 0.095,-0.06C0.073,-0.082 0.056,-0.108 0.045,-0.139C0.034,-0.17 0.028,-0.204 0.028,-0.241C0.028,-0.281 0.034,-0.317 0.046,-0.349C0.057,-0.381 0.074,-0.408 0.096,-0.431C0.117,-0.453 0.143,-0.47 0.174,-0.482C0.205,-0.494 0.239,-0.5 0.277,-0.5ZM0.272,-0.398C0.247,-0.398 0.227,-0.39 0.214,-0.374C0.2,-0.357 0.193,-0.335 0.193,-0.306L0.335,-0.306C0.336,-0.311 0.337,-0.317 0.337,-0.323C0.337,-0.344 0.331,-0.362 0.32,-0.377C0.309,-0.391 0.293,-0.398 0.272,-0.398Z" style="fill-rule:nonzero;"/>
            </g>
            <g transform="matrix(62.8362,0,0,62.8362,557.432,397.286)">
                <path d="M0.373,-0.352L0.354,-0.352C0.291,-0.352 0.246,-0.336 0.22,-0.304L0.22,0L0.06,0L0.06,-0.49L0.215,-0.49L0.215,-0.408C0.224,-0.435 0.239,-0.456 0.258,-0.471C0.277,-0.486 0.303,-0.494 0.334,-0.494C0.343,-0.494 0.351,-0.494 0.358,-0.493C0.364,-0.492 0.37,-0.49 0.377,-0.488L0.373,-0.352Z" style="fill-rule:nonzero;"/>
            </g>
        </g>
    </g>
</svg>
