<?xml version="1.0" encoding="UTF-8" standalone="no"?>
<!DOCTYPE svg PUBLIC "-//W3C//DTD SVG 1.1//EN" "http://www.w3.org/Graphics/SVG/1.1/DTD/svg11.dtd">
<svg width="100%" height="100%" viewBox="0 0 6400 4000" version="1.1" xmlns="http://www.w3.org/2000/svg" xmlns:xlink="http://www.w3.org/1999/xlink" xml:space="preserve" xmlns:serif="http://www.serif.com/" style="fill-rule:evenodd;clip-rule:evenodd;stroke-linejoin:round;stroke-miterlimit:2;">
    <g transform="matrix(1.71087,0,0,1.59903,-300.648,-1203.37)">
        <rect x="175.729" y="752.566" width="3740.79" height="2501.52"/>
    </g>
    <g id="Linked" transform="matrix(1,0,0,1,2176,976)">
        <path d="M35.562,1292.09C12.358,1206.64 0,1116.75 0,1024C0,458.839 458.839,0 1024,0C1408.82,0 1744.34,212.729 1919.25,526.984L1924.33,536.069C1928.19,543.375 1932.05,550.682 1935.9,557.989L1943.75,573.765C1921.74,574.758 1901.44,582.299 1884.77,594.561L1884.45,594.793C1857.38,614.579 1839.84,646.591 1839.84,682.667C1839.84,742.919 1888.76,791.835 1949.01,791.835L1957.5,791.406L1958.02,791.366C1979.74,789.626 1999.67,781.498 2015.88,768.801L2021.76,792.861C2023.57,801.153 2025.37,809.445 2027.18,817.737L2027.66,820.245C2041.01,886.137 2048,954.259 2048,1024C2048,1589.16 1589.16,2048 1024,2048C613.712,2048 259.459,1806.18 96.172,1457.44L92.67,1457.62C41.524,1457.62 0,1416.1 0,1364.95C0,1335.37 13.896,1309 35.562,1292.09ZM1790.49,682.667C1790.49,627.585 1818.64,579.026 1861.36,550.625C1696.05,258.979 1382.84,62.069 1024,62.069C493.096,62.069 62.069,493.096 62.069,1024C62.069,1109.88 73.346,1193.14 94.54,1272.38C94.953,1273.94 95.37,1275.5 95.791,1277.06C95.37,1275.5 94.953,1273.94 94.54,1272.38C144.822,1273.3 185.339,1314.43 185.339,1364.95C185.339,1392.35 173.428,1416.98 154.441,1433.88L153.991,1434.28C307.948,1760.23 639.824,1985.93 1024,1985.93C1554.9,1985.93 1985.93,1554.9 1985.93,1024C1985.93,961.088 1979.88,899.578 1968.24,839.979L1967.65,840.054C1961.53,840.816 1955.31,841.185 1949.01,841.185C1904.86,841.185 1864.9,823.099 1836.15,793.939C1820.82,802.772 1758.92,839.312 1672.35,901.891C1802.09,1314.55 1753.68,1620.76 1753.68,1620.76L1753.56,1620.57C1751.18,1616.68 1711.58,1552.69 1623.61,1450.02C1557.08,1372.38 1467.19,1275.04 1354.36,1172.29C1185.93,1340.47 1012.5,1561.65 904.626,1830.47L860.391,1955.81C862.725,1899.61 863.135,1843.33 861.423,1787.09C858.694,1697.46 850.65,1607.99 837.062,1519.35C821.85,1420.12 799.687,1321.95 770.576,1225.87C748.841,1154.13 723.218,1083.6 693.895,1014.61L693.735,1014.24C431.237,1232.89 200.839,1319.35 200.839,1319.35C388.671,1212.42 543.086,1087.68 669.442,959.422C510.281,613.965 310.598,432.676 310.598,432.676C310.598,432.676 401.436,445.651 601.46,547.434L601.86,547.602C609.291,550.733 719.948,598.038 883.36,706.479C1120.74,378.754 1193.31,90.756 1193.31,90.756C1193.31,90.756 1256.42,152.813 1289.48,194.87L1290.26,195.86C1454.1,399.247 1562.22,602.279 1633.1,788.777C1682.34,751.981 1734.74,716.417 1790.49,682.667ZM890.997,827.46C842.966,879.185 794.385,926.24 746.468,968.85C923.104,1296.8 976.865,1625.79 976.865,1625.79L977.019,1625.37C981.184,1614.12 1070.11,1377.9 1289.69,1115.05C1176.59,1017.79 1043.59,918.082 890.997,827.46ZM90.839,1445.97L91.901,1448.25C91.316,1446.97 90.734,1445.69 90.155,1444.42L90.839,1445.97ZM1598.94,956.943C1535.9,1005.94 1465.07,1065.51 1392.29,1135.2C1476.47,1223.18 1561.98,1322.53 1645.91,1434.28L1645.87,1431.79C1642.9,1251.99 1625.12,1094.13 1598.94,956.943ZM108.864,1321.54C103.823,1319.65 98.366,1318.62 92.67,1318.62C74.655,1318.62 59.028,1328.92 51.4,1343.97L51.221,1344.32L50.907,1344.87C47.977,1350.95 46.335,1357.76 46.335,1364.95C46.335,1384.04 57.895,1400.44 74.39,1407.53L74.458,1407.57C80.05,1409.96 86.206,1411.29 92.67,1411.29C109.95,1411.29 125.033,1401.81 132.999,1387.77L133.204,1387.35L133.376,1387.04C136.973,1380.48 139.005,1372.95 139.005,1364.95C139.005,1345.23 126.649,1328.36 109.262,1321.68L108.864,1321.54ZM35.562,1292.09C36.754,1296.54 37.979,1300.98 39.235,1305.4C40.492,1309.83 41.78,1314.24 43.098,1318.64C40.461,1309.84 37.946,1300.99 35.562,1292.09ZM106.229,1312.74C106.5,1313.6 106.773,1314.46 107.047,1315.32C107.32,1316.18 107.596,1317.05 107.872,1317.91C107.32,1316.19 106.772,1314.46 106.229,1312.74ZM102.793,1301.57C103.111,1302.63 103.43,1303.69 103.752,1304.74C104.074,1305.8 104.397,1306.85 104.723,1307.9C104.072,1305.8 103.429,1303.69 102.793,1301.57ZM41.863,1287.52C41.533,1287.72 41.203,1287.92 40.872,1288.12L39.597,1289.07C40.344,1288.55 41.1,1288.03 41.863,1287.52ZM1281.04,218.7C1193.06,432.976 1077.54,610.334 954.759,755.525C1065.51,834.191 1194.13,937.687 1328.28,1070.16C1397.62,991.736 1478.63,911.95 1572.51,835.931C1467.39,410.431 1287.18,222.277 1287.18,222.277C1287.18,222.277 1284.85,220.865 1281.04,218.7ZM521.088,646.236L520.493,646.968C520.493,646.968 526.223,653.328 529.243,656.647C601.345,735.898 662.678,823.264 714.64,912.133C753.103,870.659 788.722,829.006 821.647,787.686C728.19,735.968 628.008,688.044 521.088,646.236Z" style="fill:white;"/>
    </g>
</svg>
