<svg id="组_3" data-name="组 3" xmlns="http://www.w3.org/2000/svg" width="1600" height="1600" viewBox="224 224 1600 1600">
  <defs>
    <style>
      .cls-1 {
        fill-rule: evenodd;
      }
    </style>
  </defs>
  <g id="组_1" data-name="组 1">
    <g id="Text">
      <g id="_14.5" data-name="14.5">
        <path id="形状_66" data-name="形状 66" class="cls-1" d="M1194,573l11-26s11.64-16.129,0-14-12,10-12,10l-11,12Z"/>
        <path id="形状_65" data-name="形状 65" class="cls-1" d="M1263,550l-14-1s-30.18,3.4-17-14,29.68-17.133,41,1S1263,550,1263,550Zm-45,31-4,13s0,6.809,6,4,5.05-12.015,11-8,7,16,7,16l-25,14-10,1,11,24s0.63-18.72,15-15,16.27,2.54,17,6,9.97,4.377,6-12-4-13-4-13,12.08-15.046,12-21-6.39-14.313-11-14S1232.45,572.367,1218,581Z"/>
      </g>
      <g id="_13" data-name="13">
        <path id="形状_62" data-name="形状 62" class="cls-1" d="M1048,507l-6-3,14-10,5,6Z"/>
        <path id="形状_61" data-name="形状 61" class="cls-1" d="M1086,495s-58.56-33.221-74-32-35.746,51.591-13,56,32.54,3.841,47-13,14,2,14,2Zm-62-15,7,9-2,6-10,6-9-4v-9l4-7Z"/>
        <path id="形状_60" data-name="形状 60" class="cls-1" d="M1094,500s13.54-10.919-8-6-12-5-12-5l-27,17s24.86,16.117,18,34,7,0,7,0l8-32Z"/>
        <path id="形状_59" data-name="形状 59" class="cls-1" d="M1095,499l-12,12-4,38-4,13-18,21s-8.86,5.188,8-56,2-28,2-28h28Z"/>
        <path id="形状_64" data-name="形状 64" class="cls-1" d="M966,559l2,18-2,25,2,4,9-8,17,1-22-35Z"/>
        <path id="形状_63" data-name="形状 63" class="cls-1" d="M973,517s0.766,67.339,53,81-20.56,12.983-38,1-32.193-57.153-27-78S974.735,509.574,973,517Z"/>
      </g>
      <g id="_12" data-name="12">
        <path id="形状_58" data-name="形状 58" class="cls-1" d="M825,564l6,17,5,4,10-16-6-16s-4.048-6.938-10-5S825,564,825,564Z"/>
        <path id="形状_57" data-name="形状 57" class="cls-1" d="M832,581l-5,6-14-3-5-9,7-9,11-1,4-17-17-3s-8.686-6-10,0-9,18-9,18a41.026,41.026,0,0,0,14,32c15.52,13.463,31,8,31,8l14-29-12-19Z"/>
        <path id="形状_56" data-name="形状 56" class="cls-1" d="M781,527l-4,5-25,21-12,19s-3.295,9.7,7,13,32.352,15.642,46,49,24,15,24,15l13-20-7-1s-20.46-3.171-25-17-25-32-25-32-6.534-13.247-3-17,22.143-21.337,23-27,3.363-13.254-2-17S781,527,781,527Z"/>
      </g>
      <g id="_11" data-name="11">
        <path id="形状_55" data-name="形状 55" class="cls-1" d="M659,668l-1,3,15,18,10,1S661.167,671.786,659,668Z"/>
        <path id="形状_54" data-name="形状 54" class="cls-1" d="M634,662l-6-18,3-7,11-1,10,11S632.243,635.614,634,662Zm42,22s-16.653-9.97-16-14-9.672-10.115-7,1,20.8,27.092,30,29,9,1,9,1l-14-11Z"/>
        <path id="形状_53" data-name="形状 53" class="cls-1" d="M699,717s-52-8.466-65-57,31,0,31,0l19,20s13.313,18.762-9,4-4,7-4,7,12.767,14.191,28,12,5-16,5-16-24.287-52.313-38-57-34,0-34,0-19.113-2.556-11,15,16.962,81.36,67,86S699,717,699,717Z"/>
        <path id="形状_52" data-name="形状 52" class="cls-1" d="M668,768s-25.453-31.016-40-37-36-31-36-31-9.377-.648-11,1-14.025.367-6-7,25.848-6.084,30-3,73.672,49.321,74,55S668,768,668,768Z"/>
        <path id="形状_51" data-name="形状 51" class="cls-1" d="M724,720s-30.8,30.849-31,36-23.666,28.617-26,21,3.121-18.465,4-20,6-15,6-15,5.578-1.722,10-10,12-15,12-15,11.07,4.034,17-2S724,720,724,720Z"/>
      </g>
      <g id="_10" data-name="10">
        <path id="形状_50" data-name="形状 50" class="cls-1" d="M508,876s-15.568-3.646-3-8,14,2,14,2Z"/>
        <path id="形状_49" data-name="形状 49" class="cls-1" d="M602,876l-7,30s-3.175,10.1-6,10-7-9-7-9-10.7-14-15-11-15.455-10.837-17-9-13.338-10.971-19-10-10.361-12.175-19-9-4,8-4,8,7.084,7.554,0,11-1.3,6.586,3,8,63.546,29.58,71,44,14,8,14,8l8-19,9-46,12-20s6.9-7.1-2-12-52,12-52,12l-16-36s-3.841-8.059-14-2-34.044,14.63-37,15-15-4-15-4-5.44-9.055-6,0-5,17.35,4,20,14.5,6.477,24,2,25.356-19.6,34-7,8,20,8,20,2.027,23.68,18,15S604.129,872.819,602,876Z"/>
      </g>
      <g id="_9" data-name="9">
        <path id="形状_48" data-name="形状 48" class="cls-1" d="M493,1023s-9.18,3.12-10,5-6.858,6.46,3,4,10.423-4.92,15-4,3-2,3-2Zm20,23,17,1S528.087,1031.62,513,1046Z"/>
        <path id="形状_47" data-name="形状 47" class="cls-1" d="M548,1105s-49.775-2.72-59-16,7-17,7-17l17-8s10.11,10.21,1,18,15,6,15,6,14.1-1.95,8-23-9-21-9-21l-15,1-25,14-16,14s-11.716,6.6-1,20,24,16,24,16,13.085,10.25,9,18,6,15,6,15,5.1-.91,2-8,7-5,7-5,48.615-3.59,60,5,18.479-1.78,11-9,0-9,0-9l-3-6-2-12s1.945-56.24,0-59-4.9-14.71-15-16-25.182-13.25-65-4,10,9,10,9,19.583,1.96,20,4,11.832,4.69,14,5,12.787,11.86,11,16-3,44-3,44S557.138,1105.24,548,1105Z"/>
      </g>
      <g id="_8" data-name="8">
        <path id="形状_46" data-name="形状 46" class="cls-1" d="M525,1292l18,10,7,5S526.1,1317.25,525,1292Z"/>
        <path id="形状_45" data-name="形状 45" class="cls-1" d="M558,1278l-1-15s4.55-10.77,8,1,6,28,6,28l2,5,1,28-19-20-5,2Z"/>
        <path id="形状_44" data-name="形状 44" class="cls-1" d="M618,1213l4,12,30,46s14.587,17.17-5,28-57,13-57,13,36.423-24.66,37-28-10-27-10-27l-7-11s-18.172,52.09-38,54,1,21,1,21,11.677,16.98,0,17-17-12-17-12,1.03-17.52-5-18-26.441-13.11-26-17,16.841,19.81,30-10,11-11,11-11-0.344,7.78,8,0,24.712-29.8,24-34,14-9,14-9S612.808,1212.79,618,1213Z"/>
      </g>
      <g id="_7" data-name="7">
        <path id="形状_43" data-name="形状 43" class="cls-1" d="M729,1473s-8.961,24.88-18,26-11.88-8.22-3-15,32.939-69.84,24-97,12,13,12,13l-3,46Zm-14-109-2,14-25,40S663.573,1409.93,715,1364Z"/>
        <path id="形状_42" data-name="形状 42" class="cls-1" d="M775,1399l15,9s-21.2-3.7-34,19,1-19,1-19Z"/>
        <path id="形状_41" data-name="形状 41" class="cls-1" d="M747,1445l-12,20s10.164-5.85,12,0,8.748-1.53,6-6S744.43,1452.07,747,1445Z"/>
        <path id="形状_40" data-name="形状 40" class="cls-1" d="M794,1411l-67-48s-4.912-6.01-12,0-28,60-28,60,27.885-67.54,49-23-28,84-28,84l2,15s41.2-43.79,48-77S794,1411,794,1411Z"/>
      </g>
      <g id="_6.5" data-name="6.5">
        <path id="形状_39" data-name="形状 39" class="cls-1" d="M879,1540l6,11,14-2-3-8s21.134-12.3,23-21-7-6-7-6-22.722,9.57-9-10-3-7-3-7l-14,10v27Z"/>
        <path id="形状_38" data-name="形状 38" class="cls-1" d="M856,1462l7,13,2,64S848.678,1505.8,856,1462Z"/>
        <path id="形状_37" data-name="形状 37" class="cls-1" d="M929,1533l-26,15-25-9-10-49s3.84-14.83,15-13-23-21-23-21-6.924,1.43-5,14,9,69,9,69l13,31s9.269,34.86,65-27S929,1533,929,1533Z"/>
      </g>
      <g id="_5.5" data-name="5.5">
        <path id="形状_36" data-name="形状 36" class="cls-1" d="M1108,1521l11,33,3-19,12-28,14-21-39,32"/>
        <path id="形状_35" data-name="形状 35" class="cls-1" d="M1148,1474l14,46s30.41,8.52,13,16-53,32-53,32-9.56,1.34-5-22S1148,1474,1148,1474Zm-41,49,31-4-9,8s-2.36,18.9,9,13S1144.27,1526.21,1138,1519Z"/>
      </g>
      <g id="_4" data-name="4">
        <path id="形状_34" data-name="形状 34" class="cls-1" d="M1325,1483s9.06,2.53,11,6,19.31,15,20-4-2.42-32.86,1-36-46,29-46,29Zm-33,28s-0.03,19.64,10,9,2.07-10.76,2-14-14.36-22.87-31-12,5,31,5,31,9.56,4.82,3-11S1290.98,1503.91,1292,1511Z"/>
        <path id="形状_33" data-name="形状 33" class="cls-1" d="M1325,1411s29.46-14.13,31,5-8,14-8,14Z"/>
        <path id="形状_32" data-name="形状 32" class="cls-1" d="M1333,1434s3.28,20.5-14,22-1,11-1,11l22-1,5-22Z"/>
        <path id="形状_31" data-name="形状 31" class="cls-1" d="M1302,1389s-14.09,17.83,21,21,34,7,34,7,7.94,18.04,0,45-23,22-23,22-60.07-4.55-80-35-0.91-6.08,7-8,17.09,1.62,19,4,32.68,13.95,38,11,19,3,19,3l-3-24s-12.39-16.55-29-15-33-10-33-10Z"/>
        <path id="形状_30" data-name="形状 30" class="cls-1" d="M1259,1404l45-36s15.76-10.45,10,7-38,36-38,36S1264.72,1411.61,1259,1404Z"/>
      </g>
      <g id="_3" data-name="3">
        <path id="形状_29" data-name="形状 29" class="cls-1" d="M1425,1241s-3.07,9.01,10,11,6,10,6,10h-21l-2-20Z"/>
        <path id="形状_28" data-name="形状 28" class="cls-1" d="M1415,1267s-1.03,4.74,6,4,9-4,9-4,7.4,3.12,3,10-13.15,15.29,2,37,33,10,33,10,8.96,12.95-15,14-35.39-3.28-37-13-9.78,3.95,2,15,53.58,26.94,73,10-0.31-37.29-9-38-35.6-11.67-29-21,12.85-6.55,17-4,28.67,8.47,22-7-46.74-34.37-64-28S1415,1267,1415,1267Z"/>
        <path id="形状_27" data-name="形状 27" class="cls-1" d="M1406,1240l-23,37s-21.5,37.5,7,13,32-21,32-21l2-18S1432.46,1210.16,1406,1240Z"/>
      </g>
      <g id="_2" data-name="2">
        <path id="椭圆_1" data-name="椭圆 1" class="cls-1" d="M1524.15,1028.28c3.91,1.37,6.34,4.59,5.43,7.19s-4.82,3.62-8.73,2.25-6.34-4.59-5.43-7.19S1520.24,1026.91,1524.15,1028.28Z"/>
        <path id="形状_26" data-name="形状 26" class="cls-1" d="M1474,1057s-19.9.8-14-29,16,19,16,19Zm-23,69s-10.27,40.46,9,9,24,4,24,4Z"/>
        <path id="形状_25" data-name="形状 25" class="cls-1" d="M1543,1051s-31.76,10.79-66-12-3,19-3,19l44,16s15.95-2.66,21,5,15.17,37.84,15,40,0.46,12.13-13,8-72-10-72-10-15.4-4.39-18,5-5.56,24.71,10,14,22,3,22,3,69.24,13.54,81,35,18.17,0.57,13-9a175.783,175.783,0,0,1-9-20s-2.23-6.52,4-8,10.94-15.62,9-20-5-39-5-39S1564.22,1024.68,1543,1051Z"/>
      </g>
      <g id="_1" data-name="1">
        <path id="形状_24" data-name="形状 24" class="cls-1" d="M1555,901s3.21-21.308,10-14-3-9-3-9l-24-6,5,17Z"/>
        <path id="形状_23" data-name="形状 23" class="cls-1" d="M1570,877s6.17,34.3-8,12-6-16-6-16Z"/>
        <path id="形状_22" data-name="形状 22" class="cls-1" d="M1501,946s37.11-31.485,39-46-2.35-26.6-9-35-52-7.118-74,4,0-22,0-22h10s55.95-30.376,91,12-14.89,19.432-16,19,14,21,14,21S1561.23,922.251,1501,946Z"/>
        <path id="形状_21" data-name="形状 21" class="cls-1" d="M1501,875l-8,4s14.15,7.221,1,15-6,8-6,8-10.72,18.9-24,10,0,6,0,6l19,7,14-3,9-22,3-20Zm-46-40s23.5-14.436,32-13,1,7,1,7-17.64,9.022-20,16-6,7-6,7Z"/>
        <path id="形状_20" data-name="形状 20" class="cls-1" d="M1482,883l-4,12s-2.7,4.2-7-1-6.58-15.057,2-19,20-6,20-6,16.15-6.731,20,11,12.46,20.181-3,36-52,32-52,32-8.99,1.548-6-9,4.64-9.836-1-14-48.76-13.675-12-71,32.32,22.226,21,10-3,5-3,5-28.15,20.146,9,44,22-7,22-7-9.35-12.536,7-12,9-13,9-13a42.754,42.754,0,0,0-8.52-1.826C1490.63,878.668,1484.94,879.1,1482,883Z"/>
      </g>
      <g id="_0" data-name="0">
        <path id="形状_19" data-name="形状 19" class="cls-1" d="M1383,636l-3,28-29,26S1372.59,671.434,1383,636Zm26,11s-3.33-22.952-20,12-4-10-4-10l14-18h13l2,12Zm-67,99s6.56,5.874,9,0-8-16-8-16l-3,5-1,8Z"/>
        <path id="形状_18" data-name="形状 18" class="cls-1" d="M1405,657s-7,7.552-3,12,9,0,9,0Z"/>
        <path id="形状_17" data-name="形状 17" class="cls-1" d="M1380,696l-37,38,6,7-7,5s-18.78-12.42-28-28,6-10,6-10,11.46,3.219,16-3,41-42,41-42l5-25s-0.35-7.152,25-12,19,17,19,17-11.96,29.886-17,26-5-12-5-12,8.82-11.033,2-19-6,0-6,0l-10,12-2,28S1388.7,687.6,1380,696Z"/>
        <path id="形状_16" data-name="形状 16" class="cls-1" d="M1465,721l10-9S1487.95,723.989,1465,721Zm-19-52-4-5S1449.37,655.465,1446,669Zm-76,55v11l-8,5S1362.98,725.487,1370,724Zm-7,48,5-1,2,4S1362.34,783.757,1363,772Z"/>
        <path id="形状_15" data-name="形状 15" class="cls-1" d="M1447,667l-5-4-9,9s-26.05,21.41-28,22-35,29-35,29l-8,17,1,33,7,3,29-21s16.34-5.543,19-4-1.47-11.864,5-14,21.75-16.923,39-16,14-9,14-9-11.28-9.79-19-10-11.06-.312-18,5-34,26-34,26l-24,20s-13.3.128-2-13,44-34,44-34S1442.31,697.183,1447,667Z"/>
      </g>
    </g>
    <g id="Cycle">
      <g id="C0">
        <path id="形状_13" data-name="形状 13" class="cls-1" d="M1385,948l4-9,14,37-8,69S1398.38,971.517,1385,948Z"/>
        <path id="形状_12" data-name="形状 12" class="cls-1" d="M1318,800l6-10,10,8,58,105v38l-7,9S1390.64,903.453,1318,800Z"/>
        <path id="形状_11" data-name="形状 11" class="cls-1" d="M1283,758l23-8,11,50S1311.06,756.411,1283,758Z"/>
        <path id="形状_10" data-name="形状 10" class="cls-1" d="M1305,742l-25,7s-5.03,6.622,3,9,20-2,20-2l15,44,8-2,55,106,18,79-4,63,13-4,27,17s9.2-1.12,2-10-17-20-17-20l-4-62-14-52s12.57-10.587,11-17-9-11-9-11-2.44-5.685-2-8,8.78-13.946,5-19a103.634,103.634,0,0,1-7-11s0.23-16.488-11-18-14-17-14-17S1346.41,747.463,1305,742Z"/>
        <path id="形状_14" data-name="形状 14" class="cls-1" d="M1419,1030l-21-112,6-9S1427.97,972.92,1419,1030Z"/>
      </g>
      <g id="C0-2" data-name="C0">
        <path id="形状_13-2" data-name="形状 13" class="cls-1" d="M1272.66,1290.77l9.79-1.03-25.04,30.62-63.76,27.57S1258.98,1314.12,1272.66,1290.77Z"/>
        <path id="形状_12-2" data-name="形状 12" class="cls-1" d="M1367.33,1158.75l11.66,0.2-1.93,12.66-61.93,102.73-32.91,19-11.3-1.57S1314.05,1273.38,1367.33,1158.75Z"/>
        <path id="形状_11-2" data-name="形状 11" class="cls-1" d="M1386.2,1107.44l18.43,15.92-37.8,34.52S1401.61,1130.95,1386.2,1107.44Z"/>
        <path id="形状_10-2" data-name="形状 10" class="cls-1" d="M1411.06,1118.49l-18.57-18.15s-8.24-1.04-6.29,7.1,11.73,16.32,11.73,16.32l-30.6,34.99,5.73,5.93-64.3,100.63-59.42,55.09-56.55,28.03,9.96,9.26-1.22,31.89s5.56,7.4,9.66-3.27,8.82-24.72,8.82-24.72l51.69-34.47,38.03-38.12s15.46,5.59,20.23,1.02,5.02-13.29,5.02-13.29,3.71-4.96,5.93-5.73,16.47,0.63,18.96-5.17a102.778,102.778,0,0,1,6.02-11.56s14.39-8.05,10.09-18.53,7.72-20.63,7.72-20.63S1427.03,1157.09,1411.06,1118.49Z"/>
        <path id="形状_14-2" data-name="形状 14" class="cls-1" d="M1218.64,1361.22l86.5-74.19,10.79,0.7S1272.56,1340.45,1218.64,1361.22Z"/>
      </g>
      <g id="C0-3" data-name="C0">
        <path id="形状_13-3" data-name="形状 13" class="cls-1" d="M924.826,1366.84l5.794,7.96-39.043-6.37L835.821,1327S897.769,1366.67,924.826,1366.84Z"/>
        <path id="形状_12-3" data-name="形状 12" class="cls-1" d="M1086.5,1382.81l5.66,10.2-11.93,4.66L960.3,1395.4l-32.909-19-4.294-10.56S960.586,1393.99,1086.5,1382.81Z"/>
        <path id="形状_11-3" data-name="形状 11" class="cls-1" d="M1140.37,1373.5l-4.57,23.92-48.8-15.47S1127.72,1398.6,1140.37,1373.5Z"/>
        <path id="形状_10-3" data-name="形状 10" class="cls-1" d="M1143.23,1400.56l6.43-25.16s-3.22-7.66-9.29-1.9-8.27,18.32-8.27,18.32l-45.6-9.01-2.27,7.93-119.3-5.37-77.416-23.91-52.56-34.96-3.036,13.26L803.7,1354.64s-3.634,8.52,7.66,6.73,25.821-4.72,25.821-4.72l55.693,27.53,52.034,13.88s2.885,16.18,9.222,18.03,14.026-2.3,14.026-2.3,6.143,0.73,7.928,2.27,7.688,14.58,13.955,13.83a102.639,102.639,0,0,1,13.024-.56s14.17,8.44,21.09-.53,21.72-3.62,21.72-3.62S1117.79,1433.69,1143.23,1400.56Z"/>
        <path id="形状_14-3" data-name="形状 14" class="cls-1" d="M836.812,1355.28l107.494,37.82,4.795,9.69S881.76,1391.59,836.812,1355.28Z"/>
      </g>
      <g id="C0-4" data-name="C0">
        <path id="形状_13-4" data-name="形状 13" class="cls-1" d="M666.69,1100.65l-4,9-14-37,8-69S653.309,1077.13,666.69,1100.65Z"/>
        <path id="形状_12-4" data-name="形状 12" class="cls-1" d="M733.69,1248.65l-6,10-10-8-58-105v-38l7-9S661.053,1145.2,733.69,1248.65Z"/>
        <path id="形状_11-4" data-name="形状 11" class="cls-1" d="M768.69,1290.65l-23,8-11-50S740.63,1292.24,768.69,1290.65Z"/>
        <path id="形状_10-4" data-name="形状 10" class="cls-1" d="M746.69,1306.65l25-7s5.027-6.62-3-9-20,2-20,2l-15-44-8,2-55-106-18-79,4-63-13,4-27-17s-9.2,1.115-2,10,17,20,17,20l4,62,14,52s-12.568,10.59-11,17,9,11,9,11,2.44,5.68,2,8-8.78,13.95-5,19a103.186,103.186,0,0,1,7,11s-0.227,16.49,11,18,14,17,14,17S705.276,1301.19,746.69,1306.65Z"/>
        <path id="形状_14-4" data-name="形状 14" class="cls-1" d="M632.69,1018.65l21,112-6,9S623.722,1075.73,632.69,1018.65Z"/>
      </g>
      <g id="C0-5" data-name="C0">
        <path id="形状_13-5" data-name="形状 13" class="cls-1" d="M765.039,777.881l-9.795,1.035,25.043-30.624,63.756-27.572S778.715,754.534,765.039,777.881Z"/>
        <path id="形状_12-5" data-name="形状 12" class="cls-1" d="M670.367,909.9l-11.66-.2,1.928-12.66,61.933-102.73,32.908-19,11.295,1.563S723.641,795.272,670.367,909.9Z"/>
        <path id="形状_11-5" data-name="形状 11" class="cls-1" d="M651.494,961.215L633.066,945.3l37.8-34.526S636.088,937.709,651.494,961.215Z"/>
        <path id="形状_10-5" data-name="形状 10" class="cls-1" d="M626.637,950.162L645.2,968.313s8.248,1.042,6.294-7.1-11.732-16.32-11.732-16.32L670.367,909.9l-5.732-5.928,64.3-100.631,59.416-55.089,56.56-28.036-9.964-9.258,1.222-31.883s-5.565-7.408-9.66,3.268-8.82,24.723-8.82,24.723l-51.694,34.464L727.96,779.658s-15.453-5.59-20.223-1.026-5.026,13.294-5.026,13.294-3.7,4.955-5.928,5.732-16.468-.63-18.955,5.17A103.537,103.537,0,0,1,671.8,814.39s-14.392,8.048-10.088,18.526-7.723,20.625-7.723,20.625S610.661,911.565,626.637,950.162Z"/>
        <path id="形状_14-5" data-name="形状 14" class="cls-1" d="M819.053,707.436l-86.495,74.186-10.794-.7S765.136,728.209,819.053,707.436Z"/>
      </g>
      <g id="C0-6" data-name="C0">
        <path id="形状_13-6" data-name="形状 13" class="cls-1" d="M1127.74,682.668l-5.8-7.964,39.05,6.376,55.75,41.428S1154.8,682.839,1127.74,682.668Z"/>
        <path id="形状_12-6" data-name="形状 12" class="cls-1" d="M966.068,666.692l-5.661-10.2,11.928-4.66,119.935,2.27,32.91,19,4.29,10.562S1091.98,655.513,966.068,666.692Z"/>
        <path id="形状_11-6" data-name="形状 11" class="cls-1" d="M912.194,676l4.572-23.919,48.8,15.474S924.848,650.908,912.194,676Z"/>
        <path id="形状_10-6" data-name="形状 10" class="cls-1" d="M909.338,648.95L902.9,674.1s3.222,7.664,9.294,1.9,8.268-18.321,8.268-18.321l45.606,9.01,2.267-7.928,119.3,5.368,77.42,23.912,52.56,34.964,3.04-13.258,28.22-14.883s3.63-8.524-7.66-6.732-25.82,4.722-25.82,4.722l-55.7-27.535-52.03-13.876s-2.88-16.178-9.22-18.026-14.03,2.294-14.03,2.294-6.14-.73-7.93-2.268-7.68-14.577-13.95-13.83a103.806,103.806,0,0,1-13.03.562s-14.16-8.44-21.09.526-21.72,3.625-21.72,3.625S934.776,615.816,909.338,648.95Z"/>
        <path id="形状_14-6" data-name="形状 14" class="cls-1" d="M1215.75,694.224L1108.26,656.41l-4.8-9.7S1170.8,657.917,1215.75,694.224Z"/>
      </g>
    </g>
    <g id="Center">
      <g id="L">
        <g id="_3-2" data-name="3">
          <path id="形状_9" data-name="形状 9" class="cls-1" d="M773,822l52,71a69.55,69.55,0,0,1,7,33c-0.634,19.175,2,49,2,49l37,56-2,69-39-61-22-20-78-93,44-67S783.632,845.362,773,822Z"/>
        </g>
        <g id="_2-2" data-name="2">
          <path id="形状_8" data-name="形状 8" class="cls-1" d="M849,895l78,139S940.73,973.038,849,895Z"/>
          <path id="形状_7" data-name="形状 7" class="cls-1" d="M852,963l48,42-14,29S888.939,1020.56,852,963Z"/>
          <path id="形状_6" data-name="形状 6" class="cls-1" d="M865,1477l105,57,56,170S942.935,1542.94,865,1477Z"/>
          <path id="形状_5" data-name="形状 5" class="cls-1" d="M909,1371l28,49-72,56S920.441,1429.95,909,1371Z"/>
          <path id="形状_4" data-name="形状 4" class="cls-1" d="M951,1407l8,31,64,112,18,59-15,97-74-158-88-72,57-52-13-53-23-337,9-28-43-43-2-68,79,139,16,199s6.788,28.31-7,29,17,37,17,37,1.7,62.91-3,64,3,9,3,9Z"/>
        </g>
        <g id="_1-2" data-name="1">
          <path id="形状_3" data-name="形状 3" class="cls-1" d="M954,1272l1-5,45,32-9,84S994.522,1324.72,954,1272Z"/>
          <path id="形状_2" data-name="形状 2" class="cls-1" d="M961,566s-3.131,52.378,6,58,10,13,10,13l8,11-14,50s-4.26,7.834,0,15,23,50,23,50l-2,130,23,40,3,436-6,9v40l-22-36,2-76-38-36,3-22s-16.637-274.132-27-302-73.229-149.309-77-150,10.235-26.562,11-43,54-54,54-54l22-88V594Z"/>
        </g>
        <g id="_0-2" data-name="0">
          <path id="形状_1" data-name="形状 1" class="cls-1" d="M931,343h9l8,141-46,64-2,138-44,40-27,46-67-51,53-42,18-33,27-120,52-97S933.1,360.414,931,343Z"/>
        </g>
      </g>
      <g id="R">
        <g id="_3-3" data-name="3">
          <path id="形状_9-2" data-name="形状 9" class="cls-1" d="M1279,822l-52,71a69.606,69.606,0,0,0-7,33c0.63,19.175-2,49-2,49l-37,56,2,69,39-61,22-20,78-93-44-67S1268.37,845.362,1279,822Z"/>
        </g>
        <g id="_2-3" data-name="2">
          <path id="形状_8-2" data-name="形状 8" class="cls-1" d="M1203,895l-78,139S1111.27,973.038,1203,895Z"/>
          <path id="形状_7-2" data-name="形状 7" class="cls-1" d="M1200,963l-48,42,14,29S1163.06,1020.56,1200,963Z"/>
          <path id="形状_6-2" data-name="形状 6" class="cls-1" d="M1187,1477l-105,57-56,170S1109.06,1542.94,1187,1477Z"/>
          <path id="形状_5-2" data-name="形状 5" class="cls-1" d="M1143,1371l-28,49,72,56S1131.56,1429.95,1143,1371Z"/>
          <path id="形状_4-2" data-name="形状 4" class="cls-1" d="M1101,1407l-8,31-64,112-18,59,15,97,74-158,88-72-57-52,13-53,23-337-9-28,43-43,2-68-79,139-16,199s-6.79,28.31,7,29-17,37-17,37-1.7,62.91,3,64-3,9-3,9Z"/>
        </g>
        <g id="_1-3" data-name="1">
          <path id="形状_3-2" data-name="形状 3" class="cls-1" d="M1098,1272l-1-5-45,32,9,84S1057.48,1324.72,1098,1272Z"/>
          <path id="形状_2-2" data-name="形状 2" class="cls-1" d="M1091,566s3.13,52.378-6,58-10,13-10,13l-8,11,14,50s4.26,7.834,0,15-23,50-23,50l2,130-23,40-3,436,6,9v40l22-36-2-76,38-36-3-22s16.64-274.132,27-302,73.23-149.309,77-150-10.23-26.562-11-43-54-54-54-54l-22-88V594Z"/>
        </g>
        <g id="_0-3" data-name="0">
          <path id="形状_1-2" data-name="形状 1" class="cls-1" d="M1121,343h-9l-8,141,46,64,2,138,44,40,27,46,67-51-53-42-18-33-27-120-52-97S1118.9,360.414,1121,343Z"/>
        </g>
      </g>
    </g>
  </g>
</svg>
